<svg height="18" viewBox="0 0 18 18" width="18" xmlns="http://www.w3.org/2000/svg" xmlns:xlink="http://www.w3.org/1999/xlink"><mask id="a" fill="#fff"><path d="m0 0h18v18h-18z" fill="#fff" fill-rule="evenodd"/></mask><g fill="none" fill-rule="evenodd" mask="url(#a)"><g transform="matrix(.70710678 .70710678 -.70710678 .70710678 9 -1.754953)"><path d="m0 0h15.209877v15.209877h-15.209877z" fill="none"/><path d="m5.1042803 3.43520904 2.50065796 2.50065799 2.50065794-2.50065799c.2981509-.29815087.7327152-.41459204 1.1399969-.30546125s.7254048.42725398.8345356.83453563c.1091308.40728166-.0073103.84184602-.3054612 1.13999688l-2.50065801 2.50065796 2.50065801 2.50065794c.2981509.2981509.414592.7327152.3054613 1.1399969-.1091308.4072817-.427254.7254049-.8345357.8345357-.4072817.1091307-.841846-.0073104-1.1399969-.3054613l-2.50065794-2.50065801-2.50065796 2.50065801c-.29815086.2981509-.73271522.414592-1.13999688.3054612-.40728165-.1091308-.72540484-.4272539-.83453563-.8345356s.00731038-.841846.30546125-1.1399969l2.50065799-2.50065794-2.50065799-2.50065796c-.4609013-.4609013-.4609013-1.20816996 0-1.66907126s1.20816996-.4609013 1.66907126 0z" fill="#8d5dff" fill-rule="nonzero"/></g></g></svg>