<svg height="124" viewBox="0 0 87 124" width="87" xmlns="http://www.w3.org/2000/svg" xmlns:xlink="http://www.w3.org/1999/xlink"><linearGradient id="a" x1="74.613464%" x2="25.386536%" y1="0%" y2="100%"><stop offset="0" stop-color="#fff"/><stop offset="1" stop-color="#ffe4e6"/></linearGradient><g fill="none" fill-rule="evenodd"><path d="m75 0c6.627417-0 12 5.372583 12 12l.0007613 70.1262135c-.3198491-.082391-.6551875-.1262135-1.0007613-.1262135-2.209139 0-4 1.790861-4 4s1.790861 4 4 4c.3455738 0 .6809122-.0438225 1.0007613-.1262135l-.0007613 22.1262135c0 6.627417-5.372583 12-12 12h-63c-6.627417 0-12-5.372583-12-12v-22c2.209139 0 4-1.790861 4-4s-1.790861-4-4-4v-70c-0-6.627417 5.372583-12 12-12z" fill="url(#a)"/><path d="m14 86h58" stroke="#fb5b2b" stroke-dasharray="2 4"/></g></svg>