<svg height="34" viewBox="0 0 138 34" width="138" xmlns="http://www.w3.org/2000/svg" xmlns:xlink="http://www.w3.org/1999/xlink"><linearGradient id="a" x1="0%" x2="99.410221%" y1="47.387755%" y2="52.581432%"><stop offset="0" stop-color="#ff3434"/><stop offset="1" stop-color="#ff651c"/></linearGradient><path d="m131.838855-.5c1.794925 0 3.419925.72753728 4.596194 1.90380592 1.176268 1.17626864 1.903806 2.80126864 1.903806 4.59619408 0 .65750768-.099763 1.31120954-.295881 1.93878746l-4.934265 15.78964994c-.815381 2.60922-2.431303 4.8021106-4.526794 6.3426963-2.095491 1.5405856-4.67055 2.4288663-7.404206 2.4288663h-102.355418c-2.7336561 0-5.3087154-.8882807-7.404206-2.4288663-2.09549062-1.5405857-3.71141252-3.7334763-4.52679376-6.3426963l-4.93426562-15.78964994c-.53538137-1.7132204-.32565846-3.48125654.44621488-4.95483293.77187335-1.47357638 2.10589713-2.65269301 3.81911752-3.18807439.62757792-.1961181 1.28127978-.29588014 1.93878746-.29588014z" fill="url(#a)" fill-rule="evenodd" stroke="#fff" transform="translate(-1 1)"/></svg>