<svg height="20" viewBox="0 0 20 20" width="20" xmlns="http://www.w3.org/2000/svg"><g fill="none" fill-rule="evenodd"><path d="m0 0h20v20h-20z"/><g fill-rule="nonzero"><path d="m18.64 10.2045455c0-.63818186-.0572727-1.25181823-.1636364-1.84090914h-8.4763636v3.48545454h4.8436364c-.2127273 1.1209091-.8509091 2.07-1.8081819 2.7081818v2.2663637h2.9209091c1.7018182-1.5709091 2.6836364-3.8781819 2.6836364-6.6190909z" fill="#4285f4"/><path d="m10 19c2.43 0 4.4672727-.8018182 5.9563636-2.1763636l-2.9209091-2.2663637c-.8018181.54-1.8245454.8672728-3.0354545.8672728-2.34 0-4.32818182-1.579091-5.04-3.7063637h-2.99454545v2.3236364c1.48090909 2.9372727 4.51636363 4.9581818 8.03454545 4.9581818z" fill="#34a853"/><path d="m4.96 11.71c-.18-.54-.28636364-1.1127273-.28636364-1.71 0-.59727273.10636364-1.17.28636364-1.71v-2.32363636h-2.99454545c-.61363637 1.21090909-.96545455 2.57727272-.96545455 4.03363636 0 1.4563636.35181818 2.8227273.96545455 4.0336364l2.33181818-1.8163637z" fill="#fbbc05"/><path d="m10 4.58363636c1.3254545 0 2.5036364.45818182 3.4445455 1.34181819l2.5772727-2.57727273c-1.5627273-1.45636364-3.5918182-2.34818182-6.0218182-2.34818182-3.51818182 0-6.55363636 2.02090909-8.03454545 4.96636364l2.99454545 2.32363636c.71181818-2.12727273 2.7-3.70636364 5.04-3.70636364z" fill="#ea4335"/></g></g></svg>