<svg height="20" viewBox="0 0 20 20" width="20" xmlns="http://www.w3.org/2000/svg"><g fill="none" fill-rule="evenodd"><path d="m0 0h20v20h-20z"/><path d="m10 9.88888888c2.4545989 0 4.4444444-1.98984556 4.4444444-4.44444444 0-2.45459889-1.9898455-4.44444444-4.4444444-4.44444444-2.45459888 0-4.44444444 1.98984555-4.44444444 4.44444444 0 2.45459888 1.98984556 4.44444444 4.44444444 4.44444444zm7.2488889 3.87555552c-.5003155-.6007202-1.1020029-1.1091461-1.7777778-1.5022222-3.3948056-1.9792313-7.59186107-1.9792313-10.98666666 0-.66784249.3951876-1.26187663.9035003-1.75555554 1.5022222-.44775423.5353662-.70424001 1.2047316-.7288889 1.9022222 0 .6994607.32932035 1.3581014.8888889 1.7777778.55088885.4078981 1.18047452.6969626 1.84888887.8488889 1.72790627.3744887 3.49498649.5371676 5.26222223.4844445 1.7662966.0479843 3.5318686-.1191704 5.2577778-.4977778.6689238-.1473217 1.3000032-.4318371 1.8533333-.8355556.5595685-.4196764.8888889-1.0783171.8888889-1.7777778-.0309069-.7001635-.2953291-1.3698247-.7511111-1.9022222z" fill="#fff" fill-rule="nonzero"/></g></svg>