<svg height="20" viewBox="0 0 20 20" width="20" xmlns="http://www.w3.org/2000/svg"><g fill="none" fill-rule="evenodd"><path d="m0 0h20v20h-20z"/><path d="m8.44520679 19.2297192c-.24641519 0-.48795964-.0686303-.69732638-.1985766-.53399841-.3352763-.78687107-.9796333-.6234375-1.5886111l1.22378471-4.8304862-5.51395833-.9651736c-.52273865-.0988512-.94270192-.4883044-1.080625-1.002118-.14582165-.5213206.01087967-1.08045943.40638888-1.45006946l8.45565973-8.063125c.4391561-.42853155 1.1172995-.49384848 1.6301736-.1570139.5237937.34502795.7631074.99005304.5911111 1.59322917l-1.1776041 4.38253473 5.5416666.9651736c.5173324.09817067.9342907.48112807 1.076007.9882639.1543359.51222621.0141061 1.0678201-.3648264 1.44545136l-8.5341667 8.4879861c-.2470701.2486643-.58231944.3897346-.93284721.392535z" fill="#fff" fill-rule="nonzero"/></g></svg>