<svg height="275" viewBox="0 0 275 275" width="275" xmlns="http://www.w3.org/2000/svg" xmlns:xlink="http://www.w3.org/1999/xlink"><linearGradient id="a" x1="43.823382%" x2="57.988452%" y1="14.36867%" y2="82.356821%"><stop offset="0" stop-color="#ffd3f0"/><stop offset="1" stop-color="#f848b4"/></linearGradient><g fill="none" fill-rule="evenodd"><path d="m0 0h275v275h-275z"/><circle cx="138.5" cy="137.5" opacity=".5" r="87" stroke="#fff" stroke-width="3"/><circle cx="138.5" cy="137.5" fill="#fff" r="80.5"/><path d="m89 88h100v100h-100z"/><g transform="translate(113.8251 113)"><path d="m.112906 0h50v50h-50z"/><g fill-rule="nonzero"><path d="m34.8256925 2.69999737c4.1960121-.00262776 8.2177904 1.67768774 11.1603385 4.66023701 6.0469915 6.09600222 6.1619108 15.93274002.2566554 22.19157162l-.2562977.2636042-14.9700542 15.0980546c-1.5115756 1.5243982-3.5694232 2.3818824-5.7162 2.3818824s-4.2046244-.8574842-5.7162542-2.381937l-14.97821918-15.1063318-.23910514-.2440895c-5.91221693-6.2318911-5.81087906-16.0940069.24432811-22.19936633 4.95591623-5.01683995 12.54300531-6.04088297 18.57977951-2.79921656l-.0881099 2.61930928c-5.2810479-3.46012315-12.3450679-2.76951027-16.85541918 1.79628735-5.191 5.23399996-5.261 13.67799996-.212 18.99999996l.212.216 14.96999998 15.098c1.0796969 1.0888559 2.549588 1.7013446 4.083 1.7013446s3.0033032-.6124887 4.083-1.7013446l14.97-15.098.24-.247c5.022-5.323 4.942-13.745-.24-18.96899996-2.5143937-2.54856436-5.9458671-3.98224734-9.526-3.98000527-2.6454226.00091136-5.2908453.78098064-7.5666858 2.34244714l.5126713-2.96893836c2.0593867-1.03717539 4.3227814-1.60581174 6.6341164-1.66782272z" fill="#900c70"/><path d="m32.5267281.00000263c3.5801328-.00224469 7.0116062 1.43143829 9.526 3.98000264 5.182 5.224 5.262 13.64600003.24 18.96900003l-.24.247-14.97 15.098c-1.0796969 1.0888558-2.549588 1.7013445-4.083 1.7013445s-3.0033032-.6124887-4.083-1.7013445l-14.97000004-15.098-.212-.216c-5.049-5.322-4.979-13.76600003.212-19.00000003 4.51063558-4.56608541 11.57526184-5.25649754 16.85641774-1.795633l-.3343958 10.00313033 3.125 5.859375-1.5625 11.71875 4.6875-11.71875-3.125-7.8125 1.3654448-7.89134897c2.2760312-1.5618543 4.9217822-2.34211691 7.5675333-2.343026z" fill="url(#a)" transform="translate(2.3004 5)"/></g></g></g></svg>