<svg height="55" viewBox="0 0 72 55" width="72" xmlns="http://www.w3.org/2000/svg" xmlns:xlink="http://www.w3.org/1999/xlink"><defs><linearGradient id="a"><stop offset="0" stop-color="#9556ff"/><stop offset="1" stop-color="#f255ff"/></linearGradient><linearGradient id="b" x1="46.030547%" x2="50%" xlink:href="#a" y1="0%" y2="97.147967%"/><path id="c" d="m29.2133333 13.6266667c0 .8247452.6685881 1.4933333 1.4933334 1.4933333.8247452 0 1.4933333-.6685881 1.4933333-1.4933333 0-.8247453-.6685881-1.4933334-1.4933333-1.4933334-.8247453 0-1.4933334.6685881-1.4933334 1.4933334z"/><path id="d" d="m13.9066667 21.0933333c0 2.680422 2.1729113 4.8533334 4.8533333 4.8533334s4.8533333-2.1729114 4.8533333-4.8533334-2.1729113-4.8533333-4.8533333-4.8533333-4.8533333 2.1729113-4.8533333 4.8533333z"/><linearGradient id="e" x1="46.030547%" x2="50%" xlink:href="#a" y1="20.692228%" y2="77.636037%"/><mask id="f" fill="#fff"><path d="m0 0h72v55h-72z" fill="#fff" fill-rule="evenodd"/></mask></defs><g fill="none" fill-rule="evenodd" mask="url(#f)"><g transform="matrix(.97029573 -.2419219 .2419219 .97029573 -2.799974 9.704093)"><path d="m0 0h42v42h-42z"/><g transform="translate(2.3333 3.8889)"><path d="m0 0h37.333333v37.333333h-37.333333z"/><g fill-rule="nonzero"><path d="m22.4933333 4.66666667c2.408928 0 4.3866786 1.90476643 4.4770134 4.312l.0029866.168h3.7333334c2.4742356 0 4.48 2.00576433 4.48 4.48000003l-.0003334 7.238-.0565309.1355934-2.3793913 5.8884377-.122846-.0852063c-.3941827-.2612629-.8388438-.4609838-1.3238231-.582176-2.286331-.5713346-4.6029266.8189447-5.1742612 3.1052757l-.078327.3416272c-.2455697 1.1247278-.37102 2.2538004-.3831811 3.3718799l-18.85463937-.0000983c-2.47423568 0-4.48-2.0057643-4.48-4.48v-14.9333333c0-2.4742357 2.00576432-4.48000003 4.48-4.48000003l3.73333337-.00074667.0029866-.16725333c.0903348-2.40723357 2.0680854-4.312 4.4770134-4.312zm6.0615656 25.26601583c.2365997-.9468095 1.1959423-1.5225484 2.1427519-1.2859488.9468095.2365996 1.5225484 1.1959422 1.2859488 2.1427518-.1773915.7151624-.2775942 1.4333276-.3053965 2.1451115-.3120307.0688479-.6375146.105403-.9715364.105403l-2.5412713.0004348c.0134821-1.0311326.1408337-2.0726715.3895035-3.1077523zm6.6314344-2.4010158.0003334 1.0283333c0 1.3515834-.5985267 2.5633735-1.5449909 3.3847811.1016837-.6370756.2765504-1.2720969.5282785-1.8951458z" fill="#fff"/><g><use fill="#fff133" xlink:href="#c"/><use fill="url(#b)" xlink:href="#c"/></g><g><use fill="#fff133" xlink:href="#d"/><use fill="url(#b)" xlink:href="#d"/></g></g></g><g fill="#fff133" fill-rule="nonzero"><path d="m45.5180837 7.19174074c.2513132-.39492084.7143361-.6013939 1.1760705-.52443817l2.3333333.38888888c.6355654.10592757 1.0649217.70702636.9589941 1.34259173-.1059275.63556538-.7070263 1.06492166-1.3425917.9589941l-1.5722012-.26257069-.9461727 1.48813251c-.1927358.3028706-.5127114.4982268-.8655654.5342693l-.1187063.0060426h-2.3333334c-.6443322 0-1.1666666-.5223344-1.1666666-1.16666663 0-.64433221.5223344-1.16666667 1.1666666-1.16666667h1.6924445z" transform="matrix(.7193398 -.69465837 .69465837 .7193398 6.686607 34.324934)"/><path d="m4.50166571 1.76170461c.63785634-.09112233 1.22881032.35209315 1.31993265.9899495l.34461448 2.41899158.66400585-.36154483c.79375215-.43295572 1.74235682.1618431 1.72544668 1.04143275l-.00590914.09886642c-.25925926 2.59259259-.31111111 3.11111111-.35466666 3.54666667l-.00811806.08118055c-.00811805.08118056-.01638194.16381945-.02610417.26104167-.06411345.64113448-.63582988 1.10890248-1.27696439 1.04478908-.64113451-.0641135-1.1089025-.6358299-1.04478905-1.27696443.01134259-.11342592.02070023-.20700231.03015712-.30157118l.00817882-.08178819c.02490104-.24901042.05439583-.54395833.12392187-1.23921875l.00695225-.06888976-.19967252.10954484c-.68346945.37280151-1.52195049-.01651389-1.694305-.75621802l-.01929689-.1030019-.58333334-4.08333334c-.09112233-.63785634.35209315-1.22881032.9899495-1.31993266z" transform="matrix(.97437006 -.22495105 .22495105 .97437006 -1.267061 1.517948)"/></g></g><g transform="matrix(.99026807 .1391731 -.1391731 .99026807 31.783606 11.281735)"><path d="m0 0h42v42h-42z"/><g fill-rule="nonzero"><path d="m36.5435002 5.9847394c.2513133-.39492083.7143362-.6013939 1.1760706-.52443817l2.3333333.38888889c.6355654.10592756 1.0649217.70702635.9589941 1.34259173-.1059276.63556537-.7070264 1.06492165-1.3425917.95899409l-1.5722012-.26257069-.9461727 1.48813252c-.1927358.30287058-.5127114.49822678-.8655655.53426931l-.1187063.00604262h-2.3333333c-.6443322 0-1.1666667-.52233446-1.1666667-1.16666667s.5223345-1.16666667 1.1666667-1.16666667h1.6924445z" fill="#fff133" transform="matrix(.98162718 -.190809 .190809 .98162718 -.78852 7.171909)"/><path d="m33.3285356 21.04375c.4677446.0584654.8921231.303157 1.1770574.6786774.2849344.3755204.4063261.8501099.3366926 1.3163226-.9365504 6.2732268-5.9522672 11.1456375-12.25 11.9v1.855c0 .9664983-.7835017 1.75-1.75 1.75s-1.75-.7835017-1.75-1.75v-1.855c-6.2977328-.7543625-11.31344963-5.6267732-12.24999999-11.9-.13530974-.9664983.53850171-1.8596902 1.505-1.9949999.96649829-.1353098 1.85969019.5385016 1.99499999 1.5049999.7414182 5.2295609 5.2181435 9.1163681 10.5 9.1163681s9.7585818-3.8868072 10.5-9.1163681c.0607256-.4643953.3050652-.885071.6783584-1.1679187s.8443861-.4042619 1.3078916-.3370813zm-12.48625-17.5c2.3206443 0 4.546241.92187236 6.1871843 2.56281568 1.6409434 1.64094331 2.5628157 3.86654006 2.5628157 6.18718432v8.75c0 4.8324916-3.9175084 8.75-8.75 8.75s-8.75-3.9175084-8.75-8.75v-8.75c0-2.32064426.9218724-4.54624101 2.5628157-6.18718432 1.6409433-1.64094332 3.86654-2.56281568 6.1871843-2.56281568z" fill="#fff"/><path d="m16.5576923 8.79627404c2.9480769-1.22836539 5.9365385-1.22836539 8.8846154 0 .6691142.27879759.9855284 1.04723194.7067308 1.71634616-.2787976.6691142-1.047232.9855284-1.7163462.7067308-2.3019231-.9591347-4.5634615-.9591347-6.8653846 0-.6691142.2787976-1.4375486-.0376166-1.7163462-.7067308-.2787976-.66911422.0376166-1.43754857.7067308-1.71634616zm1.2622705 4.61592306c1.9837687-.9257587 4.1154528-.9257587 6.3047713-.0242746.6702749.2759955.9899014 1.0430993.7139059 1.7133741-.2759955.6702749-1.0430993.9899014-1.7133741.7139059-1.5294315-.6297659-2.8977474-.6297659-4.1952287-.0242746-.6568684.3065385-1.437864.0225401-1.7444026-.6343282-.3065385-.6568684-.0225401-1.437864.6343282-1.7444026z" fill="url(#e)"/></g></g></g></svg>