<svg height="20" viewBox="0 0 20 20" width="20" xmlns="http://www.w3.org/2000/svg"><g fill="none" fill-rule="evenodd"><path d="m0 0h20v20h-20z"/><path d="m14.375 1.875c1.3807119 0 2.5 1.11928813 2.5 2.5v5.8333333c0 .4601875-.3731459.8332058-.8333333.8332058-.4601875 0-.8332629-.3730183-.8333334-.8332058v-5.8333333c0-.46023729-.373096-.83333332-.8333333-.83333332h-10c-.46023729 0-.83333333.37309603-.83333334.83333332v11.6666667c.00000001.4602373.37309605.8333333.83333334.8333333h3.33333334c.46023729 0 .83333334.373096.83333334.8333333s-.37309605.8333334-.83333334.8333334h-3.33333334c-1.38071187 0-2.5-1.1192881-2.5-2.5v-11.6666667c0-1.38071187 1.11928813-2.5 2.5-2.5zm.3208333 10.625c.3548349.2914741.4070083.8150712.1166667 1.1708333l-1.4515 1.7721667.782136.6509268 2.6875-3.2875c.1400965-.1716569.3427862-.2804544.5632717-.3023465.2204855-.0218922.440612.0449235.6117283.1856798.3548348.2914741.4070082.8150712.1166666 1.1708334l-3.225 3.9416666c-.292702.3535324-.8161694.40383-1.1708333.1125l-1.4204693-1.1817601-.7185.8795c-.2927021.3535324-.8161694.4038299-1.1708333.1125l-1.86250004-1.55c-.17042261-.1412901-.27762319-.344584-.29794742-.5650238-.02032424-.2204397.04789835-.4399073.1896141-.6099762.29392602-.3522349.81726834-.400658 1.17083332-.1083333l1.21666664 1.0125 2.6875-3.2875c.1400965-.1716569.3427863-.2804544.5632718-.3023466s.440612.0449236.6117282.1856799zm-4.4875-3.125c.4602373 0 .8333334.37309605.8333334.8333333 0 .4602373-.3730961.8333334-.8333334.8333334h-3.3333333c-.4602373 0-.83333334-.3730961-.83333334-.8333334 0-.46023726.37309604-.8333333.83333334-.8333333zm1.6666667-3.33333332c.5128205 0 .7889546.23668639.8284024.71005916l.0049309.12327416c0 .55555556-.2777777.83333334-.8333333.83333334h-5c-.51282052 0-.78895464-.23668639-.82840237-.71005918l-.00493097-.12327416c0-.55555556.27777778-.83333332.83333334-.83333332z" fill="#fff" fill-rule="nonzero"/></g></svg>