<svg height="28" viewBox="0 0 28 28" width="28" xmlns="http://www.w3.org/2000/svg"><g fill="none" fill-rule="evenodd"><path d="m0 0h28v28h-28z"/><g fill="#ff38a2" fill-rule="nonzero"><path d="m14.0291667 2.3625c6.4433221 0 11.6666667 5.22334459 11.6666667 11.6666667 0 6.4433221-5.2233446 11.6666667-11.6666667 11.6666667-6.44332211 0-11.6666667-5.2233446-11.6666667-11.6666667 0-6.44332211 5.22334459-11.6666667 11.6666667-11.6666667zm0 2.33333335c-5.15465768 0-9.33333335 4.17867567-9.33333335 9.33333335 0 5.1546576 4.17867567 9.3333333 9.33333335 9.3333333 5.1546576 0 9.3333333-4.1786757 9.3333333-9.3333333 0-2.4753539-.9833305-4.84932378-2.73367-6.59966331-1.7503396-1.75033953-4.1243094-2.73367004-6.5996633-2.73367004zm-4.08333335 4.66666665c.96649835 0 1.75000005.7835017 1.75000005 1.75s-.7835017 1.75-1.75000005 1.75c-.96649831 0-1.75-.7835017-1.75-1.75s.78350169-1.75 1.75-1.75zm8.16666665 0c.9664983 0 1.75.7835017 1.75 1.75s-.7835017 1.75-1.75 1.75-1.75-.7835017-1.75-1.75.7835017-1.75 1.75-1.75z"/><path d="m8.40000003 16.625c.82804199 2.3168815 3.02292807 3.8632925 5.48333317 3.8632925s4.6552912-1.546411 5.4833332-3.8632925z"/></g></g></svg>