<svg height="20" viewBox="0 0 20 20" width="20" xmlns="http://www.w3.org/2000/svg"><g fill="none" fill-rule="evenodd"><path d="m0 0h20v20h-20z"/><path d="m15.8541667 5.02872288h-2.5c-.0416667-1.75-1.375-3.16666666-3.125-3.33333334-1.83333336-.125-3.41666668 1.25-3.5416667 3.08333334v.25h-2.5c-1.375 0-2.5 1.125-2.5 2.5v1.66666666c0 .45833334.375.83333336.83333334.83333336h.83333334v5.8333333c0 1.375 1.125 2.5 2.5 2.5h8.33333332c1.375 0 2.5-1.125 2.5-2.5v-5.8333333h.8333333c.4583334 0 .8333334-.37500002.8333334-.83333336v-1.66666666c0-1.375-1.125-2.5-2.5-2.5zm-.8333334 10.83333332c0 .4583334-.375.8333333-.8333333.8333333h-5.83333332v-4.1666666c0-.4583334-.375-.8333334-.83333334-.8333334s-.83333334.375-.83333334.8333334v4.1666666h-.83333332c-.45833334 0-.83333334-.375-.83333334-.8333333v-5.8333333h9.99999996zm1.6666667-7.49999998h-13.33333332v-.83333334c0-.45833334.375-.83333334.83333332-.83333334h2.5c.91666666 0 1.66666668-.75 1.66666668-1.66666666s.75-1.66666666 1.66666662-1.66666666c.125 0 .2083334 0 .3333334.04166666.7916666.16666666 1.3333333.875 1.3333333 1.70833334 0 .875.7083333 1.58333334 1.5833333 1.58333332h2.5833334c.4583333 0 .8333333.375.8333333.83333334z" fill="#fff" fill-rule="nonzero"/></g></svg>