<svg height="24" viewBox="0 0 24 24" width="24" xmlns="http://www.w3.org/2000/svg"><g fill="none" fill-rule="evenodd"><path d="m0 0h24v24h-24z"/><g fill="#fff" fill-rule="nonzero"><path d="m12.025 2.025c5.5228475 0 10 4.47715251 10 10 0 5.5228475-4.4771525 10-10 10-5.52284749 0-10-4.4771525-10-10 0-5.52284749 4.47715251-10 10-10zm0 2.00000002c-4.41827799 0-7.99999998 3.58172199-7.99999998 7.99999998 0 4.418278 3.58172199 8 7.99999998 8 4.418278 0 8-3.581722 8-8 0-2.12173191-.8428547-4.15656321-2.3431457-5.65685424-1.5002911-1.50029102-3.5351224-2.34314574-5.6568543-2.34314574zm-3.49999998 3.99999998c.82842712 0 1.49999998.67157288 1.49999998 1.5 0 .8284271-.67157286 1.5-1.49999998 1.5-.82842713 0-1.5-.6715729-1.5-1.5 0-.82842712.67157287-1.5 1.5-1.5zm6.99999998 0c.8284271 0 1.5.67157288 1.5 1.5 0 .8284271-.6715729 1.5-1.5 1.5s-1.5-.6715729-1.5-1.5c0-.82842712.6715729-1.5 1.5-1.5z"/><path d="m7.20000002 14.25c.70975029 1.9858984 2.59108121 3.3113936 4.69999988 3.3113936 2.1089187 0 3.9902496-1.3254952 4.6999999-3.3113936z"/></g></g></svg>