<svg height="24" viewBox="0 0 24 24" width="24" xmlns="http://www.w3.org/2000/svg"><g fill="none" fill-rule="evenodd"><path d="m0 0h24v24h-24z"/><g fill="#fff" fill-rule="nonzero"><path d="m12.025 2.025c-5.52284749 0-10 4.47715251-10 10 0 5.5228475 4.47715251 10 10 10 5.5228475 0 10-4.4771525 10-10 0-2.65216489-1.0535684-5.19570402-2.9289322-7.07106781s-4.4189029-2.92893219-7.0710678-2.92893219zm0 18c-4.41827799 0-7.99999998-3.581722-7.99999998-8 0-4.41827799 3.58172199-7.99999998 7.99999998-7.99999998 4.418278 0 8 3.58172199 8 7.99999998 0 2.1217319-.8428547 4.1565632-2.3431457 5.6568543-1.5002911 1.500291-3.5351224 2.3431457-5.6568543 2.3431457z"/><path d="m9.025 15.025h6c.6666667 0 1 .3333333 1 1s-.3333333 1-1 1h-6c-.66666666 0-1-.3333333-1-1s.33333334-1 1-1z"/><path d="m7.02500002 8.025h2v2h-2zm3.99999998 0h2v2h-2zm4 0h2v2h-2zm-7.99999998 3h2v2h-2zm3.99999998 0h2v2h-2zm4 0h2v2h-2z"/></g></g></svg>