<svg height="24" viewBox="0 0 24 24" width="24" xmlns="http://www.w3.org/2000/svg"><g fill="none" fill-rule="evenodd"><path d="m0 0h24v24h-24z"/><g fill-rule="nonzero"><path d="m20.7416253 3.0336973c.3731078-.09805804.7696736.02168076 1.0261672.3098402.2564936.28815943.3294686.69592956.1888328 1.0551598l-6.155 15.94c-.1226344.3203629-.3973963.5581422-.7320464.6335138-.3346502.0753717-.6848193-.0216573-.9329536-.2585138l-3.47-3.33-1.23000001 1.24c-.29610794.2986848-.7435179.3884815-1.13194557.2271853-.38842767-.1612963-.64062346-.5416072-.63805443-.9621853v-3.39l-5.325-5.09999998c-.26921227-.25850847-.37751593-.64242687-.2830929-1.00351712s.37679734-.6428486.73809292-.73648288z" fill="#8d5dff"/><path d="m14.468645 8.13346325c.4374956-.31393584 1.0466512-.21377083 1.360587.22372482.3139359.43749565.2137709 1.04665124-.2237248 1.36058708l-2.7488343 1.97249425c-.4374957.3139358-1.0466513.2137708-1.3605871-.2237249-.3139359-.4374956-.2137709-1.0466512.2237248-1.360587z" fill="#fff"/></g></g></svg>