<svg height="24" viewBox="0 0 24 24" width="24" xmlns="http://www.w3.org/2000/svg"><g fill="none" fill-rule="evenodd"><path d="m0 0h24v24h-24z"/><path d="m21.7677925 3.3435375c.2564936.28815943.3294686.69592956.1888328 1.0551598l-6.155 15.94c-.1226344.3203629-.3973963.5581422-.7320464.6335138-.3346502.0753717-.6848193-.0216573-.9329536-.2585138l-3.47-3.33-1.23000001 1.24c-.29610794.2986848-.7435179.3884815-1.13194557.2271853-.38842767-.1612963-.64062346-.5416072-.63805443-.9621853v-3.39l-5.325-5.09999998c-.26921227-.25850847-.37751593-.64242687-.2830929-1.00351712s.37679734-.6428486.73809292-.73648288l17.94499999-4.62500002c.3731078-.09805804.7696736.02168076 1.0261672.3098402zm-5.9385605 5.01365057c-.3139358-.43749565-.9230914-.53766066-1.360587-.22372482l-2.7488344 1.97249425c-.4374957.3139358-.5376607.9230914-.2237248 1.360587.3139358.4374957.9230914.5376607 1.3605871.2237249l2.7488343-1.97249425c.4374957-.31393584.5376607-.92309143.2237248-1.36058708z" fill="#fff" fill-rule="nonzero"/></g></svg>