<svg height="17" viewBox="0 0 18 17" width="18" xmlns="http://www.w3.org/2000/svg"><path d="m311 499c1.932997 0 3.5 1.567003 3.5 3.5v10c0 1.932997-1.567003 3.5-3.5 3.5h-10c-1.932997 0-3.5-1.567003-3.5-3.5v-10c0-1.932997 1.567003-3.5 3.5-3.5zm0 1.2h-10c-1.270255 0-2.3 1.029745-2.3 2.3v10c0 1.270255 1.029745 2.3 2.3 2.3h10c1.270255 0 2.3-1.029745 2.3-2.3v-10c0-1.270255-1.029745-2.3-2.3-2.3zm-5 3.25c.331371 0 .6.268629.6.6v2.799l2.8.001c.331371 0 .6.268629.6.6s-.268629.6-.6.6h-2.8v2.8c0 .331371-.268629.6-.6.6s-.6-.268629-.6-.6l-.001-2.8h-2.799c-.331371 0-.6-.268629-.6-.6s.268629-.6.6-.6l2.799-.001.001-2.799c0-.331371.268629-.6.6-.6z" fill-rule="evenodd" transform="translate(-297 -499)"/></svg>