<svg height="28" viewBox="0 0 28 28" width="28" xmlns="http://www.w3.org/2000/svg" xmlns:xlink="http://www.w3.org/1999/xlink"><defs><linearGradient id="a" x1="50%" x2="50%" y1="0%" y2="87.749586%"><stop offset="0" stop-color="#a09dcc"/><stop offset="1" stop-color="#726f9b"/></linearGradient><path id="b" d="m8.24561404 10.1754386c5.49707606 0 8.24561406-1.11111111 8.24561406-3.33333334 0-4.55392688-3.6916872-6.84210526-8.24561406-6.84210526-4.55392689 0-8.24561404 2.28817838-8.24561404 6.84210526 0 2.22222223 2.74853801 3.33333334 8.24561404 3.33333334z"/><linearGradient id="c" x1="50%" x2="50%" y1="0%" y2="100%"><stop offset="0" stop-color="#edeef3"/><stop offset=".501084037" stop-color="#c3c4d0"/><stop offset="1" stop-color="#7f818e"/></linearGradient><mask id="d" fill="#fff"><use fill="#fff" fill-rule="evenodd" xlink:href="#b"/></mask></defs><g fill="none" fill-rule="evenodd"><circle cx="14" cy="14" fill="#fff" r="14"/><g transform="translate(4 4)"><path d="m0 0h20v20h-20z"/><g transform="translate(1.7544 9.4737)"><use fill="url(#a)" xlink:href="#b"/><path d="m0 7.01754386c1.28654971 1.40350877 4.03508772 2.10526316 8.24561404 2.10526316 4.21052636 0 6.95906436-.70175439 8.24561406-2.10526316v3.15789474h-16.4912281z" fill="#686592" mask="url(#d)"/></g><circle cx="10" cy="4.385965" fill="url(#c)" r="4.035088"/></g></g></svg>