<svg height="52" viewBox="0 0 52 52" width="52" xmlns="http://www.w3.org/2000/svg" xmlns:xlink="http://www.w3.org/1999/xlink"><linearGradient id="a" x1="20.203928%" x2="81.790924%" y1="7.166202%" y2="94.329482%"><stop offset="0" stop-color="#ff65cb"/><stop offset="1" stop-color="#ff267a"/></linearGradient><g fill="none" fill-rule="evenodd"><circle cx="26" cy="26" fill="url(#a)" r="26"/><g transform="translate(11 11)"><path d="m0 0h30v30h-30z"/><g fill="#fff" fill-rule="nonzero"><path d="m5.06412419 4.15919526c1.68795919-1.13259974 3.96785628-.74004393 5.17981801.89186818l2.4045528 3.23802104c1.0288046 1.38522725.9393433 3.30347022-.2139214 4.58693202l-.401182.4462514c-.1870002.2081761-.215622.5142484-.0704608.7534858.4094674.6834025.9041152 1.3120041 1.4720586 1.8707015.6189121.604312 1.4923716 1.2936849 2.6153003 2.0605011.2525286.1726263.5922555.1406017.808077-.0761738.4996749-.5035867 1.0746866-.9263328 1.7043886-1.2530589 1.4726934-.7636423 3.4087773.3446864 6.5268247 3.1561342l.3872167.3529386c1.5372459 1.4113655 1.6532712 3.7966764.2602605 5.3505742l-.1631389.180278c-.8201378.8944073-1.546328 1.5133194-2.2198313 1.8637189-1.325424.688738-1.7938929.8163291-3.3046731.8309291l-.3999124.0012696c-2.613396-.0012696-7.7963879-2.7568566-11.8367729-6.9553022-4.38888011-4.560906-5.93266902-7.4028233-6.37574657-11.2661042-.22852139-2.12017064.84552913-4.17368919 2.28648338-5.13474856z"/><path d="m20.1573999 9.49375097c-.6429231-.65959825-1.4791309-1.09740336-2.3874999-1.24999998h-.15c-.690356-.07939092-1.3143591.41589407-1.39375 1.10625-.0793909.69035591.415894 1.31435901 1.10625 1.39375001l.19375.04375c.7104211.1812319 1.2500358.7599137 1.38125 1.48125l.0312499.14375c.2089847.5894242.8214071.9337027 1.4335857.8059026.6121786-.1278002 1.0357071-.6883469.9914144-1.3121526-.1379717-.9111363-.560124-1.7554409-1.2062501-2.41250003z"/><path d="m25.52615 8.10000098c-.7612586-1.83971469-2.2227854-3.30124145-4.0625-4.06250001-.9096637-.37599526-1.8844431-.56925218-2.86875-.56875097-.6902812.00010665-1.2498087.55971976-1.2498087 1.25000097s.5595275 1.24989432 1.2498087 1.24999903h.3249999c.5463706.0311598 1.0833364.15588808 1.5875001.36875098 1.8727239.77526583 3.0921484 2.60440261 3.0875 4.63124902v.143751c.0396955.6903559.631519 1.2178204 1.321875 1.1781249.6903559-.0396954 1.2178204-.631519 1.178125-1.3218759.0005021-.98430594-.1927548-1.95908539-.56875-2.86874902z"/></g></g></g></svg>