<svg height="24" viewBox="0 0 24 24" width="24" xmlns="http://www.w3.org/2000/svg"><g fill="none" fill-rule="evenodd"><path d="m0 0h24v24h-24z"/><g fill="#fff" fill-rule="nonzero"><path d="m4.05129935 3.3273562c1.35036735-.90607978 3.17428503-.59203513 4.14385442.71349455l1.92364223 2.59041684c.8230437 1.1081818.7514746 2.64277616-.17113713 3.66954561l-.32094559.3570011c-.14960017.1665409-.17249758.4113987-.05636862.6027887.3275739.5467219.72329214 1.0496032 1.17764684 1.4965611.4951297.4834497 1.1938973 1.034948 2.0922402 1.6484009.202023.1381011.4738045.1124814.6464616-.060939.39974-.4028694.8597493-.7410662 1.363511-1.0024471 1.1781547-.6109139 2.7270218.2757491 5.2214597 2.5249073l.3097734.2823509c1.2297967 1.1290924 1.3226169 3.0373411.2082084 4.2804594l-.1305111.1442224c-.6561103.7155259-1.2370625 1.2106555-1.7758651 1.4909751-1.0603392.5509904-1.4351143.6530633-2.6437385.6647433l-.3199299.0010156c-2.0907168-.0010156-6.2371103-2.2054852-9.46941832-5.5642417-3.51110409-3.6487248-4.74613521-5.9222586-5.10059726-9.01288339-.18281711-1.69613648.6764233-3.33895132 1.82918671-4.10779881z"/><path d="m16.12592 7.59500077c-.5143386-.52767859-1.1833048-.87792269-1.91-.99999998h-.12c-.5522848-.06351274-1.0514873.33271526-1.115.885-.0635128.55228474.3327152 1.05148724.885 1.11499999l.155.03499999c.5683369.14498552 1.0000286.60793098 1.105 1.185l.025.11500001c.1671877.47153932.6571256.74696222 1.1468685.64472212.4897428-.1022402.8285656-.5506775.7931315-1.04972212-.1103774-.72890903-.4480992-1.40435273-.965-1.93000001z"/><path d="m20.42092 6.48000078c-.6090069-1.47177175-1.7782283-2.64099316-3.25-3.25000001-.7277309-.3007962-1.5075545-.45540174-2.295-.45500077-.552225.00008532-.999847.44777581-.999847 1 0 .55222575.447622.99991623.999847 1h.26c.4370964.02492784.866669.12471047 1.27.29500078 1.4981791.62021267 2.4737187 2.0835221 2.47 3.70499922v.11500079c.0317564.55228473.5052152.97425633 1.0575.94249996.5522847-.03175638.9742563-.50521523.9425-1.05750075.0004017-.78744475-.1542038-1.56726831-.455-2.29499922z"/></g></g></svg>