<svg height="24" viewBox="0 0 24 24" width="24" xmlns="http://www.w3.org/2000/svg"><g fill="none" fill-rule="evenodd"><path d="m0 0h24v24h-24z"/><path d="m8.05415658 5.42049219 3.94584342 3.94584345 3.9458434-3.94584345c.4704588-.47045884 1.1561675-.65419394 1.7988262-.48199406.6426588.17219988 1.1446324.67417349 1.3168322 1.31683221.1721999.64265872-.0115352 1.32836741-.481994 1.79882624l-3.9458435 3.94584342 3.9458435 3.9458434c.4704588.4704588.654194 1.1561675.4819941 1.7988262-.1721999.6426588-.6741735 1.1446324-1.3168323 1.3168323-.6426587.1721999-1.3283674-.0115353-1.7988262-.4819941l-3.9458434-3.9458435-3.94584342 3.9458435c-.47045883.4704588-1.15616752.6541939-1.79882624.481994-.64265872-.1721998-1.14463233-.6741734-1.31683221-1.3168322-.17219988-.6426587.01153522-1.3283674.48199406-1.7988262l3.94584345-3.9458434-3.94584345-3.94584342c-.72726634-.72726634-.72726634-1.90639805 0-2.63366439s1.90639805-.72726634 2.63366439 0z" fill="#fff" fill-rule="nonzero"/></g></svg>