<svg height="36" viewBox="0 0 36 36" width="36" xmlns="http://www.w3.org/2000/svg"><g fill="none" fill-rule="evenodd"><circle cx="18" cy="18" fill="#fff" fill-opacity=".1" r="17.5" stroke="#fff" stroke-opacity=".6"/><g transform="translate(6 6)"><path d="m0 0h24v24h-24z"/><path d="m11.8630789 13.2780561 5.655 5.655c.3907415.3907414 1.0242585.3907414 1.415 0 .3907415-.3907415.3907415-1.0242586 0-1.415l-5.655-5.655 5.655-5.65500001c.3907415-.39074146.3907415-1.02425854 0-1.415-.3907415-.39074145-1.0242585-.39074145-1.415 0l-5.655 5.65500001-5.655-5.65500001c-.39074146-.39074145-1.02425853-.39074145-1.41499999 0-.39074146.39074146-.39074146 1.02425854 0 1.415l5.65499999 5.65500001-5.65499999 5.655c-.25276542.2527654-.35148156.621179-.258963.966463.09251855.3452839.36221604.6149814.70750001.7075.34528397.0925185.71369758-.0061976.96646298-.258963z" fill="#fff" fill-rule="nonzero"/></g></g></svg>