<svg height="16" viewBox="0 0 1024 1024" width="16" xmlns="http://www.w3.org/2000/svg"><path d="m56.529619 504.928933c0-251.268294 204.418104-455.635412 455.634413-455.635412s455.634412 204.367118 455.634412 455.635412c0 251.217308-204.418104 455.584426-455.634412 455.584427s-455.634413-204.367119-455.634413-455.584427zm85.447636 0c0 204.111188 166.076588 370.187777 370.186777 370.187777 204.161175 0 370.237763-166.076588 370.237763-370.187777 0-204.162174-166.076588-370.238763-370.237763-370.238762-204.110189 0-370.186777 166.076588-370.186777 370.238762zm314.264068 170.741313a99.104901 99.104901 0 0 1 -86.165439-57.255344l-24.706244-52.642605a42.708322 42.708322 0 0 1 77.348849-36.240091l24.655259 52.642606a13.833217 13.833217 0 0 0 12.353622 8.149771c2.716257-.204944 9.175491-.563846 12.917468-7.125052l130.656273-227.689741a42.696325 42.696325 0 1 1 74.067748 42.488382l-130.656274 227.69574a99.200875 99.200875 0 0 1 -86.370383 50.079306c-1.435607 0-2.717257-.050986-4.100879-.102972z" fill="#1296db"/></svg>