<svg height="24" viewBox="0 0 24 24" width="24" xmlns="http://www.w3.org/2000/svg"><g fill="none" fill-rule="evenodd"><path d="m0 0h24v24h-24z"/><path d="m2.61113689 5.52642054 1.42696385 1.42606375c-.10310962.15728953-.1630743.34540429-.1630743.54752455v7.78000006c0 .5522847.44771525.9999999 1 .9999999h.5c.82842713 0 1.5.6715729 1.5 1.5v.5000001l1-.7550001v-4.025c0-.7545787.27858882-1.4440896.73852294-1.971289l8.76145942 8.7642714.0000176.9570177c-.0073081.4135667-.2183375.7935037-.558135 1.0191362l-.1179321.0693303c-.4083191.2109474-.8994638.1808142-1.2789329-.0784666l-.095-.07-2.31-1.9299999h-2.14c-.7374151.0010818-1.4493969-.2694713-1.99999996-.7600001l-.14-.115-1.86 1.395c-.36087688.2739676-.84175335.3312038-1.25685488.1495969s-.6994311-.5736208-.74314513-1.0245969v-1.6249999c-1.58903176.0028626-2.90466052-1.2338284-3.00001325-2.82v-7.96000005c-.00127569-.7528718.27567332-1.44426497.73612371-1.97358831zm1.26616261-3.80519683.09500001.085 2.69270928 2.69277629 9.21001761.0009956c1.5908509-.00269558 2.9072026 1.23686894 3 2.82501324v3.17499996c1.5908509-.0027088 2.9072026 1.2368557 3.0000133 2.825v3.955c.0011552.6817738-.2258468 1.3131322-.6106639 1.8193747l.5602343.5591508c.3860839.3708372.4116462.9799503.0579905 1.3818317-.3536556.4018814-.9610755.4539701-1.3779905.1181683l-.095-.08-17.8523106-17.85731059c-.38608389-.37083719-.41164619-.97995026-.05799055-1.38183168.35365565-.40188142.96107555-.45397016 1.37799055-.11816832zm4.78770929 4.77777629 4.00100001 4.001 4.2090176.0000088v-2.99999996c0-.55228474-.4477152-1-1-1z" fill="#fff" fill-rule="nonzero"/></g></svg>