<svg height="27" viewBox="0 0 49 27" width="49" xmlns="http://www.w3.org/2000/svg" xmlns:xlink="http://www.w3.org/1999/xlink"><linearGradient id="a" x1="4.580322%" x2="100%" y1="55.31283%" y2="39.920866%"><stop offset="0" stop-color="#ff991c"/><stop offset="1" stop-color="#ff4c22"/></linearGradient><g fill="none" fill-rule="evenodd" transform="matrix(-1 0 0 1 49 0)"><path d="m1.42769999 0h42.57230001c2.7614237 0 5 2.23857625 5 5v17h-47.57230001c-.55228475 0-1-.4477153-1-1 0-.1165525.02037556-.2322078.06020658-.3417431l3.51209343-9.6582569-3.51209343-9.65825694c-.18873948-.51903357.07901678-1.092797.59805036-1.28153648.10953529-.03983102.22519054-.06020658.34174306-.06020658z" fill="url(#a)" transform="matrix(-1 0 0 1 49 0)"/><path d="m0 22h6l-6 5z" fill="#d54008" transform="matrix(-1 0 0 1 6 0)"/></g></svg>