<svg height="22" viewBox="0 0 22 22" width="22" xmlns="http://www.w3.org/2000/svg"><g fill="none" fill-rule="evenodd"><path d="m0 0h22v22h-22z"/><g fill="#fff" fill-rule="nonzero"><path d="m10.35375 14.4191667c.0403376.0443445.0866084.0829035.1375.1145833l.06875.04125.0916667.0458333.0916666.0275.0779167.0229167c.1148317.0243762.2335016.0243762.3483333 0l.0779167-.0229167c.0298268-.0064121.0589834-.0156194.0870833-.0275l.0916667-.0458333.06875-.04125c.0508916-.0316798.0971624-.0702388.1375-.1145833l4.2166667-4.2120834c.3581796-.35817963.3581796-.93890362 0-1.29708329-.3581797-.35817967-.9389037-.35817968-1.2970834-.00000001l-2.6354166 2.6491667v-8.78625003c0-.50626102-.4104057-.91666667-.9166667-.91666667s-.9166667.41040565-.9166667.91666667v8.78625003l-2.64916663-2.6491667c-.23170162-.23170162-.56941409-.32219141-.8859244-.23738273-.3165103.08480868-.56373299.33203137-.64854167.64854168-.08480868.3165103.0056811.65422277.23738273.88592435z"/><path d="m18.3333333 11.9395833c-.506261 0-.9166666.4104057-.9166666.9166667v5.5h-12.83333337v-5.5c-.0000775-.5062062-.41046045-.9165263-.91666667-.9165263s-.91666666.4103201-.91666666.9165263v5.5c0 .4862302.1931542.9525457.53697089 1.2963624s.8101322.5369709 1.29636244.5369709h12.83333337c.4862302 0 .9525457-.1931542 1.2963624-.5369709s.5369709-.8101322.5369709-1.2963624v-5.5c0-.506261-.4104057-.9166667-.9166667-.9166667z"/></g></g></svg>