<svg height="18" viewBox="0 0 18 18" width="18" xmlns="http://www.w3.org/2000/svg"><g fill="none" fill-rule="evenodd"><path d="m0 0h18v18h-18z"/><circle cx="9" cy="9" fill="#ff3d59" r="8.4375"/><path d="m6.81940232 5.36395621 2.18059767 2.1805977 2.18059771-2.1805977c.2599904-.25999041.6389346-.36152823.9940881-.26636514.3551536.0951631.63256.37256956.7277231.72772306.0951631.35515351-.0063747.73409778-.2663651.99408819l-2.1805977 2.18059767 2.1805977 2.18059771c.2599904.2599904.3615282.6389346.2663651.9940882-.0951631.3551535-.3725695.6325599-.727723.727723-.3551536.0951631-.7340978-.0063747-.9940882-.2663651l-2.18059771-2.1805977-2.18059767 2.1805977c-.25999041.2599904-.63893468.3615282-.99408819.2663651-.3551535-.0951631-.63255996-.3725695-.72772306-.7277231-.09516309-.3551535.00637473-.7340977.26636514-.9940881l2.1805977-2.18059771-2.1805977-2.18059767c-.40191034-.40191035-.40191034-1.05353576 0-1.45544611.40191035-.40191034 1.05353576-.40191034 1.45544611 0z" fill="#fff" fill-rule="nonzero"/></g></svg>