<svg height="36" viewBox="0 0 36 36" width="36" xmlns="http://www.w3.org/2000/svg" xmlns:xlink="http://www.w3.org/1999/xlink"><defs><linearGradient id="a" x1="50%" x2="50%" y1="7.839124%" y2="76.143153%"><stop offset="0" stop-color="#fac6a7"/><stop offset="1" stop-color="#ff8a1a"/></linearGradient><linearGradient id="b"><stop offset="0" stop-color="#feb33f"/><stop offset="1" stop-color="#f86b2f"/></linearGradient><linearGradient id="c" x1="95.213863%" x2="8.646774%" xlink:href="#b" y1="40.636139%" y2="40.636139%"/><linearGradient id="d" x1="50%" x2="50%" y1="0%" y2="100%"><stop offset="0" stop-color="#e34400"/><stop offset="1" stop-color="#ff8c5a"/></linearGradient><path id="e" d="m15.8625 22.3582031h-7.7625c-3.31875 0-4.6078125-1.2890625-4.6078125-4.6078125v-7.76718748c0-.3984375.328125-.7265625.7265625-.7265625h15.525c.3984375 0 .7265625.328125.7265625.7265625v7.76249998c0 3.3234375-1.2890625 4.6125-4.6078125 4.6125z"/><filter id="f" height="130.5%" width="123.6%" x="-11.8%" y="-15.3%"><feGaussianBlur in="SourceAlpha" result="shadowBlurInner1" stdDeviation="1.5"/><feOffset dx="0" dy="1" in="shadowBlurInner1" result="shadowOffsetInner1"/><feComposite in="shadowOffsetInner1" in2="SourceAlpha" k2="-1" k3="1" operator="arithmetic" result="shadowInnerInner1"/><feColorMatrix in="shadowInnerInner1" type="matrix" values="0 0 0 0 1   0 0 0 0 0.844770586   0 0 0 0 0.50277963  0 0 0 1 0"/></filter><linearGradient id="g" x1="50%" x2="50%" y1="6.090977%" y2="100%"><stop offset="0" stop-color="#ffad18"/><stop offset="1" stop-color="#ffeed7"/></linearGradient><linearGradient id="h" x1="50%" x2="50%" xlink:href="#b" y1="0%" y2="100%"/><path id="i" d="m17.2265625 6.3046875h-14.559375c-1.696875 0-2.6671875-.9703125-2.6671875-2.6671875v-.9703125c0-1.696875.9703125-2.6671875 2.6671875-2.6671875h14.5546875c1.65 0 2.6672036 1.0171875 2.6672036 2.6671875v.9703125c.0046714 1.6453125-1.0125161 2.6671875-2.6625161 2.6671875z"/><linearGradient id="j" x1="50%" x2="50%" y1="0%" y2="100%"><stop offset="0" stop-color="#fef4e7"/><stop offset="1" stop-color="#ffb734"/></linearGradient><mask id="k" fill="#fff"><use fill="#fff" fill-rule="evenodd" xlink:href="#i"/></mask></defs><g fill="none" fill-rule="evenodd"><circle cx="18" cy="18" fill="#000" fill-opacity=".5" r="18"/><g transform="translate(6 6)"><path d="m0 0h24v24h-24z"/><path d="m9.5296875 1.98164063 2.4705256 2.47035937 2.4700994-2.47035938c.6421875-.6421875 1.696875-.6421875 2.3390625 0l1.378125 1.378125c.61875.61875.6515625 1.621875.046875 2.26875-.13125.1453125-.3234375.234375-.5296875.234375h-5.3578125c-.121875 0-.2404527-.03050045-.3450166-.08597033-.1010715.05518016-.2193176.08597034-.3440459.08597034h-5.3578125c-.2015625 0-.3984375-.0890625-.534375-.234375-.590625-.65156251-.571875-1.65000001.046875-2.26875l1.378125-1.378125c.6421875-.64218751 1.696875-.64218751 2.3390625 0z" fill="url(#a)" fill-rule="nonzero"/><ellipse cx="12" cy="4.875" fill="url(#c)" rx="2.625" ry="1.875"/><g fill-rule="nonzero"><use fill="url(#d)" xlink:href="#e"/><use fill="#000" filter="url(#f)" xlink:href="#e"/></g><path d="m10.0078125 17.4316406c-.271875 0-.553125-.065625-.80625-.2015625-.553125-.3-.890625-.871875-.890625-1.4953125v-5.0015625c0-.3984375.328125-.7265625.7265625-.7265625h5.859375c.3984375 0 .7265625.328125.7265625.7265625v4.978125c0 .6328125-.3375 1.2046875-.890625 1.4953125-.553125.3-1.2234375.2625-1.7484375-.0890625l-.8625-.58125c-.0796875-.05625-.1828125-.05625-.271875 0l-.9140625.6c-.2765625.196875-.6046875.2953125-.928125.2953125z" fill="url(#g)"/><g transform="translate(2.0625 4.4098)"><use fill="url(#h)" fill-rule="nonzero" xlink:href="#i"/><path d="m6.2475.090234h7.3125v6.75h-7.3125z" fill="url(#j)" mask="url(#k)"/></g></g></g></svg>