<svg height="20" viewBox="0 0 20 20" width="20" xmlns="http://www.w3.org/2000/svg"><g fill="none" fill-rule="evenodd"><path d="m0 0h20v20h-20z"/><g fill-rule="nonzero"><path d="m9.40608024 9.48630667-8.33155598 8.72888803c.18958316.671938.67910506 1.2185194 1.32616162 1.4807411.64705656.2622218 1.37898687.210638 1.98286918-.1397455l9.37455254-5.3391492z" fill="#ea4335"/><path d="m17.8307609 8.00251988-4.0540283-2.32190905-4.56311006 4.00436186 4.58173496 4.51965181 4.0229868-2.2970758c.7264331-.380345 1.1816557-1.1325342 1.1816557-1.9525144 0-.81998015-.4552226-1.57216935-1.1816557-1.95251442z" fill="#fbbc04"/><path d="m1.07452426 1.65141573c-.05036254.18618029-.07542102.37829531-.07452426.57116479v15.42144938c.00052824.1927777.02556258.3847077.07452426.5711648l8.61713838-8.50538876z" fill="#4285f4"/><path d="m9.46816337 9.93330521 4.30856923-4.25269438-9.36213597-5.36398239c-.35220651-.20627716-.75278974-.31552714-1.16095452-.31662844-1.0130184-.00200302-1.90360056.67037383-2.17911785 1.64520742z" fill="#34a853"/></g></g></svg>