<svg height="72" viewBox="0 0 72 72" width="72" xmlns="http://www.w3.org/2000/svg" xmlns:xlink="http://www.w3.org/1999/xlink"><linearGradient id="a" x1="50%" x2="50%" y1="0%" y2="100%"><stop offset="0" stop-color="#ff7193"/><stop offset="1" stop-color="#ff3d59"/></linearGradient><linearGradient id="b" x1="50%" x2="50%" y1="0%" y2="100%"><stop offset="0" stop-color="#ff8193"/><stop offset="1" stop-color="#ff3d59"/></linearGradient><filter id="c" height="64.8%" width="119.3%" x="-9.6%" y="22%"><feOffset dx="0" dy="2" in="SourceAlpha" result="shadowOffsetOuter1"/><feGaussianBlur in="shadowOffsetOuter1" result="shadowBlurOuter1" stdDeviation="1"/><feColorMatrix in="shadowBlurOuter1" result="shadowMatrixOuter1" type="matrix" values="0 0 0 0 0   0 0 0 0 0   0 0 0 0 0  0 0 0 0.10315539 0"/><feMerge><feMergeNode in="shadowMatrixOuter1"/><feMergeNode in="SourceGraphic"/></feMerge></filter><g fill="none" fill-rule="evenodd"><circle cx="36" cy="36" fill="url(#a)" r="35" stroke="url(#b)" stroke-width="2"/><g filter="url(#c)" transform="translate(17.1 17.1)"><path d="m0 0h37.8v37.8h-37.8z"/><path d="m36.968065 22.9786843c-.4830191 2.4531567-2.8073619 4.0946555-5.2807965 3.7294073l-4.9075798-.7249018c-2.0995833-.3099955-3.6901503-2.0561789-3.803388-4.1755007l-.0391988-.7370479c-.0184175-.3437011-.2597277-.6347984-.5940551-.7166204-.9505141-.2382526-1.9274506-.3547578-2.9073366-.3467161-1.0638886.0126982-2.4231486.172806-4.0667378.4825317-.3697748.0694944-.6373963.392822-.6365665.7690695.0034023.8725781-.1290294 1.7403693-.3925401 2.5722144-.616691 1.9450335-3.2645426 2.6649665-8.4216696 2.9316288l-.6437437.0298132c-2.56452922.1094833-4.74004472-1.8642082-4.87997492-4.4272564l-.01490662-.2986838c-.06459521-1.4912108.02870899-2.6611019.30972578-3.5516324.55375212-1.7518001.85022756-2.270218 2.15151739-3.5969043l.34671616-.3489245c2.27408265-2.2718743 9.17859291-4.3830887 16.34424461-4.2456169 7.7839989.149618 11.5984289 1.2786539 15.3438469 4.2533462 2.0427545 1.6452455 2.8946384 4.3654217 2.477254 6.4545522z" fill="#fff" fill-rule="nonzero"/></g></g></svg>