<svg height="72" viewBox="0 0 72 72" width="72" xmlns="http://www.w3.org/2000/svg" xmlns:xlink="http://www.w3.org/1999/xlink"><linearGradient id="a" x1="50%" x2="50%" y1="0%" y2="100%"><stop offset="0" stop-color="#02f994"/><stop offset="1" stop-color="#00d37d"/></linearGradient><linearGradient id="b" x1="50%" x2="50%" y1="0%" y2="100%"><stop offset="0" stop-color="#5fffbe"/><stop offset="1" stop-color="#00d37d"/></linearGradient><filter id="c" height="104.8%" width="106%" x="-6.2%" y="6.1%"><feOffset dx="0" dy="2" in="SourceAlpha" result="shadowOffsetOuter1"/><feGaussianBlur in="shadowOffsetOuter1" result="shadowBlurOuter1" stdDeviation="1"/><feColorMatrix in="shadowBlurOuter1" result="shadowMatrixOuter1" type="matrix" values="0 0 0 0 0   0 0 0 0 0   0 0 0 0 0  0 0 0 0.10315539 0"/><feMerge><feMergeNode in="shadowMatrixOuter1"/><feMergeNode in="SourceGraphic"/></feMerge></filter><g fill="none" fill-rule="evenodd"><circle cx="36" cy="36" fill="url(#a)" r="35" stroke="url(#b)" stroke-width="2"/><g filter="url(#c)" transform="translate(17.1 18)"><path d="m0 0h36.9v36.9h-36.9z"/><g fill="#fff" fill-rule="nonzero"><path d="m6.22887275 5.11581016c2.0761898-1.39309767 4.88046325-.91025402 6.37117615 1.09699787l2.9575999 3.98276587c1.2654298 1.7038295 1.1553923 4.0632684-.2631233 5.6419263l-.4934538.5488894c-.2300103.2560565-.2652151.6325254-.0866668.9267875.5036449.840585 1.1120617 1.613765 1.8106321 2.3009627.7612618.7433039 1.835617 1.5912325 3.2168193 2.5344165.3106102.2123303.7284743.1729401.9939347-.0936938.6146002-.6194117 1.3218646-1.1393893 2.0963981-1.5412625 1.8114128-.93928 4.192796.4239643 8.0279943 3.8820451l.4762766.4341144c1.8908124 1.7359796 2.0335235 4.669912.3201203 6.5812064l-.2006607.2217419c-1.0087696 1.100121-1.9019835 1.8613829-2.7303926 2.2923742-1.6302716.8471478-2.2064882 1.0040848-4.0647479 1.0220428l-.4918923.0015616c-3.214477-.0015616-9.589557-3.3909336-14.55923063-8.5550217-5.39832253-5.6099143-7.29718288-9.1054726-7.84216827-13.8573082-.28108131-2.60780983 1.04000082-5.13363764 2.81237455-6.31574067z"/><path d="m24.7936019 11.6773137c-.7907955-.8113059-1.819331-1.3498061-2.936625-1.5375h-.1845c-.8491377-.0976508-1.6166616.5115497-1.7143124 1.3606875-.0976509.8491378.5115497 1.6166616 1.3606875 1.7143125l.2383124.0538125c.873818.2229152 1.5375441.9346939 1.6989376 1.8219375l.0384374.1768125c.2570512.7249918 1.0103308 1.1484544 1.7633104.9912602s1.2739197-.8466666 1.2194397-1.6139477c-.1697052-1.1206976-.6889525-2.1591923-1.4836876-2.967375z"/><path d="m31.3971645 9.9630012c-.9363481-2.26284907-2.734026-4.06052698-4.9968751-4.99687501-1.1188862-.46247416-2.317865-.70018018-3.5285625-.69956369-.8490458.00013118-1.5372646.68845531-1.5372646 1.53750119 0 .84904589.6882188 1.53737002 1.5372646 1.5375h.39975c.6720358.03832537 1.3325037.19174115 1.952625.45356251 2.3034504.95357697 3.8033426 3.2034152 3.7976251 5.6964375v.1768125c.0488254.8491378.7767684 1.4979191 1.6259062 1.4490937s1.4979191-.7767684 1.4490937-1.6259062c.0006177-1.2106975-.2370883-2.4096762-.6995624-3.5285625z"/></g></g></g></svg>