<svg height="48" viewBox="0 0 110 48" width="110" xmlns="http://www.w3.org/2000/svg" xmlns:xlink="http://www.w3.org/1999/xlink"><linearGradient id="a" x1="50%" x2="50%" y1="0%" y2="100%"><stop offset="0" stop-color="#02f994"/><stop offset="1" stop-color="#00d37d"/></linearGradient><linearGradient id="b" x1="50%" x2="50%" y1="0%" y2="100%"><stop offset="0" stop-color="#5fffbe"/><stop offset="1" stop-color="#00d37d"/></linearGradient><filter id="c" height="108.1%" width="109.3%" x="-7.8%" y="5.3%"><feOffset dx="0" dy="2" in="SourceAlpha" result="shadowOffsetOuter1"/><feGaussianBlur in="shadowOffsetOuter1" result="shadowBlurOuter1" stdDeviation="1"/><feColorMatrix in="shadowBlurOuter1" result="shadowMatrixOuter1" type="matrix" values="0 0 0 0 0   0 0 0 0 0   0 0 0 0 0  0 0 0 0.10315539 0"/><feMerge><feMergeNode in="shadowMatrixOuter1"/><feMergeNode in="SourceGraphic"/></feMerge></filter><g fill="none" fill-rule="evenodd"><rect fill="url(#a)" height="46" rx="23" stroke="url(#b)" stroke-width="2" width="108" x="1" y="1"/><g filter="url(#c)" transform="translate(39 8)"><path d="m0 0h32v32h-32z"/><g fill="#fff" fill-rule="nonzero"><path d="m5.40173247 4.43647494c1.8004898-1.20810639 4.23238003-.78938019 5.52513923.95132606l2.5648563 3.45388911c1.0973916 1.47757569 1.0019662 3.52370159-.2281828 4.89272749l-.4279275.4760015c-.1994669.2220544-.2299968.5485316-.0751581.8037182.4367651.7289626.9643895 1.399471 1.5701958 1.9954149.6601729.6445995 1.591863 1.3799306 2.7896536 2.1978679.2693639.1841347.6317392.1499752.8619488-.0812521.5329866-.5371592 1.1463324-.9880883 1.8180146-1.3365962 1.5708729-.8145517 3.6360291.3676655 6.9619462 3.3665432l.4130312.3764678c1.639729 1.5054565 1.7634893 4.0497882.2776112 5.7072792l-.1740148.1922965c-.8748137.9540345-1.6494165 1.6142074-2.3678201 1.9879668-1.4137856.7346539-1.9134857.8707511-3.5249846.8863244l-.4265733.0013542c-2.7876223-.0013542-8.316147-2.940647-12.62589103-7.418989-4.68147211-4.8649664-6.32818028-7.8963448-6.80079634-12.0171778-.24375614-2.26151533.90189774-4.45193511 2.4389156-5.47706511z"/><path d="m21.5012266 10.1266677c-.6857847-.70357147-1.5777397-1.17056359-2.5466666-1.33333331h-.16c-.7363797-.08468365-1.401983.44362034-1.4866667 1.18-.0846836.73637961.4436203 1.40198301 1.18 1.48666661l.2066667.0466667c.7577825.193314 1.3333715.8105746 1.4733333 1.58l.0333333.1533333c.222917.6287192.8761676.9959497 1.5291581.8596295.6529904-.1363202 1.1047542-.7342366 1.0575086-1.3996295-.1471698-.9718787-.5974656-1.8724703-1.2866667-2.5733333z"/><path d="m27.2278933 8.64000104c-.8120091-1.96236233-2.370971-3.52132421-4.3333333-4.33333334-.9703079-.40106161-2.0100727-.60720233-3.06-.6066677-.7363.00011376-1.3331293.59703441-1.3331293 1.33333437s.5968293 1.33322061 1.3331293 1.33333333h.3466666c.5827952.03323609 1.1555588.16627959 1.6933334.39333334 1.9975721.82695022 3.2982916 2.77802946 3.2933333 4.93999896v.1533344c.0423419.7363796.6736203 1.2990084 1.41 1.2566666.7363796-.0423418 1.2990085-.6736203 1.2566667-1.410001.0005356-1.0499263-.2056051-2.08969109-.6066667-3.05999896z"/></g></g></g></svg>