<svg height="48" viewBox="0 0 110 48" width="110" xmlns="http://www.w3.org/2000/svg" xmlns:xlink="http://www.w3.org/1999/xlink"><linearGradient id="a" x1="50%" x2="50%" y1="0%" y2="100%"><stop offset="0" stop-color="#ff7193"/><stop offset="1" stop-color="#ff3d59"/></linearGradient><linearGradient id="b" x1="50%" x2="50%" y1="0%" y2="100%"><stop offset="0" stop-color="#ff8193"/><stop offset="1" stop-color="#ff3d59"/></linearGradient><filter id="c" height="67.1%" width="121.7%" x="-10.8%" y="21.4%"><feOffset dx="0" dy="2" in="SourceAlpha" result="shadowOffsetOuter1"/><feGaussianBlur in="shadowOffsetOuter1" result="shadowBlurOuter1" stdDeviation="1"/><feColorMatrix in="shadowBlurOuter1" result="shadowMatrixOuter1" type="matrix" values="0 0 0 0 0   0 0 0 0 0   0 0 0 0 0  0 0 0 0.10315539 0"/><feMerge><feMergeNode in="shadowMatrixOuter1"/><feMergeNode in="SourceGraphic"/></feMerge></filter><g fill="none" fill-rule="evenodd"><rect fill="url(#a)" height="46" rx="23" stroke="url(#b)" stroke-width="2" width="108" x="1" y="1"/><g filter="url(#c)" transform="translate(38.1 7.1)"><path d="m0 0h34v34h-34z"/><path d="m33.2516987 20.6686579c-.4344617 2.206543-2.5251403 3.6830234-4.7499228 3.3544933l-4.4142252-.6520281c-1.8885141-.2788319-3.3191828-1.8494731-3.4210369-3.7557413l-.0352581-.6629532c-.016566-.3091491-.2336176-.5709827-.5343353-.6445792-.8549598-.2143013-1.7336857-.3190943-2.6150647-.3118611-.9569368.0114217-2.1795516.155434-3.6579123.4340233-.3326017.0625081-.5733194.3533319-.572573.6917556.0030603.7848586-.1160582 1.5654115-.3530784 2.313632-.5546956 1.7495011-2.93636105 2.3970598-7.57504674 2.6369148l-.57902873.0268161c-2.3067194.098477-4.26353229-1.676801-4.38939543-3.9821883l-.01340807-.2686574c-.05810151-1.3413007.0258229-2.3935837.27858933-3.19459.49808391-1.5756931.76475494-2.041995 1.93522728-3.2353107l.3118611-.3138475c2.04547117-2.0434848 8.25587726-3.94246069 14.70117236-3.81880877 7.0014805.13457702 10.4324493 1.15011197 13.8013438 3.82576117 1.8373983 1.4798504 2.603643 3.9265697 2.2282179 5.8056818z" fill="#fff" fill-rule="nonzero"/></g></g></svg>