<svg height="20" viewBox="0 0 71 20" width="71" xmlns="http://www.w3.org/2000/svg"><g fill="none" fill-rule="evenodd"><path d="m0 0h71v20h-71z"/><path d="m.56 4.84122385c0-.75249194.21874766-1.34748557.65624297-1.78498088s1.03248894-.65624297 1.78498088-.65624297h8.66240715c.1224987.19249794.2318726.44624522.3281215.76124184.096249.31499663.1443735.64749307.1443735.99748932 0 .66499287-.1443735 1.13748781-.4331204 1.41748481s-.6693678.4199955-1.1418627.4199955h-5.53869071v2.44122385h5.90618671c.1224987.19249794.2318725.44187027.3281215.74811699s.1443735.6343682.1443735.98436449c0 .6649928-.1399985 1.1374878-.4199955 1.4174848s-.656243.4199955-1.12873795.4199955h-4.82994826v2.7562204h6.74617771c.1224987.192498.2318725.4462453.3281215.7612419s.1443735.6474931.1443735.9974893c0 .6649929-.1443735 1.1418628-.4331204 1.4306097s-.6693678.4331203-1.1418628.4331203h-7.66491785c-.75249194 0-1.34748557-.2187476-1.78498088-.6562429s-.65624297-1.032489-.65624297-1.7849809zm20.159784.31499662c.7174923 0 1.4218598.10062392 2.1131024.30187177.6912426.20124784 1.2906112.50311961 1.7981057.9056153.5249944-.34999625 1.1156131-.63874316 1.771856-.86624072.656243-.22749757 1.4481095-.34124635 2.3755996-.34124635.6649929 0 1.3168609.08749907 1.955604.26249719.6387432.17499813 1.2074871.45062017 1.7062318.82686614.4987446.37624597.8968654.87499063 1.1943622 1.49623397.2974968.62124335.4462452 1.37811024.4462452 2.27060063v8.2686615c-.1749981.0524994-.4506202.1049988-.8268662.1574983-.3762459.0524994-.7656168.0787491-1.1681124.0787491-.3849959 0-.7306172-.0262497-1.0368639-.0787491-.3062468-.0524995-.564369-.1574983-.7743667-.3149966-.2099978-.1574984-.3718711-.3718711-.4856198-.6431182-.1137488-.2712471-.1706232-.6256183-.1706232-1.0631136v-6.2736828c0-.52499433-.1487484-.90561526-.4462452-1.14186273-.2974968-.23624746-.6999925-.3543712-1.2074871-.3543712-.2449974 0-.5074946.05687439-.7874916.17062317s-.4899947.23187252-.6299932.35437121c.0174998.06999925.0262497.13562354.0262497.19687289v.17062317 8.74115639c-.1924979.0524994-.4768699.1049988-.8531158.1574983-.376246.0524994-.7568669.0787491-1.1418628.0787491s-.7306172-.0262497-1.0368639-.0787491c-.3062467-.0524995-.564369-.1574983-.7743667-.3149966-.2099978-.1574984-.371871-.3718711-.4856198-.6431182s-.1706232-.6256183-.1706232-1.0631136v-6.2736828c0-.52499433-.1618732-.90561526-.4856198-1.14186273-.3237465-.23624746-.7131173-.3543712-1.1681125-.3543712-.3149966 0-.5862437.04812449-.8137412.14437345-.2274976.09624897-.4199955.18812299-.5774939.27562205v9.21365133c-.1749981.0524994-.4506201.1049988-.8268661.1574983-.376246.0524994-.7656168.0787491-1.1681125.0787491-.3849959 0-.7306172-.0262497-1.0368639-.0787491-.3062467-.0524995-.5643689-.1574983-.7743667-.3149966-.2099977-.1574984-.371871-.3718711-.4856198-.6431182s-.1706231-.6256183-.1706231-1.0631136v-7.92741504c0-.47249494.1006239-.84874091.3018717-1.12873791.2012479-.279997.4768699-.54249419.8268662-.78749156.5949936-.4199955 1.3343607-.76124185 2.2181012-1.02373904.8837405-.26249718 1.8068556-.39374578 2.7693453-.39374578zm22.2072621 0c.7174923 0 1.4218598.10062392 2.1131024.30187177.6912426.20124784 1.2906112.50311961 1.7981057.9056153.5249944-.34999625 1.1156131-.63874316 1.771856-.86624072.656243-.22749757 1.4481095-.34124635 2.3755996-.34124635.6649929 0 1.3168609.08749907 1.955604.26249719.6387432.17499813 1.2074871.45062017 1.7062318.82686614.4987446.37624597.8968653.87499063 1.1943622 1.49623397.2974968.62124335.4462452 1.37811024.4462452 2.27060063v8.2686615c-.1749981.0524994-.4506202.1049988-.8268662.1574983-.3762459.0524994-.7656168.0787491-1.1681124.0787491-.3849959 0-.7306172-.0262497-1.0368639-.0787491-.3062468-.0524995-.564369-.1574983-.7743667-.3149966-.2099978-.1574984-.3718711-.3718711-.4856198-.6431182-.1137488-.2712471-.1706232-.6256183-.1706232-1.0631136v-6.2736828c0-.52499433-.1487484-.90561526-.4462452-1.14186273-.2974968-.23624746-.6999925-.3543712-1.2074871-.3543712-.2449974 0-.5074946.05687439-.7874916.17062317s-.4899947.23187252-.6299932.35437121c.0174998.06999925.0262497.13562354.0262497.19687289v.17062317 8.74115639c-.1924979.0524994-.4768699.1049988-.8531159.1574983-.3762459.0524994-.7568668.0787491-1.1418627.0787491s-.7306172-.0262497-1.0368639-.0787491c-.3062467-.0524995-.564369-.1574983-.7743667-.3149966-.2099978-.1574984-.371871-.3718711-.4856198-.6431182s-.1706232-.6256183-.1706232-1.0631136v-6.2736828c0-.52499433-.1618733-.90561526-.4856198-1.14186273-.3237465-.23624746-.7131173-.3543712-1.1681125-.3543712-.3149966 0-.5862437.04812449-.8137413.14437345-.2274975.09624897-.4199955.18812299-.5774938.27562205v9.21365133c-.1749981.0524994-.4506201.1049988-.8268661.1574983-.376246.0524994-.7656168.0787491-1.1681125.0787491-.3849959 0-.7306172-.0262497-1.0368639-.0787491-.3062467-.0524995-.5643689-.1574983-.7743667-.3149966-.2099977-.1574984-.371871-.3718711-.4856198-.6431182s-.1706232-.6256183-.1706232-1.0631136v-7.92741504c0-.47249494.100624-.84874091.3018718-1.12873791.2012479-.279997.4768699-.54249419.8268662-.78749156.5949936-.4199955 1.3343607-.76124185 2.2181012-1.02373904.8837405-.26249718 1.8068556-.39374578 2.7693453-.39374578zm21.5510191 10.31613953c.2974969 0 .6256183-.0306247.9843645-.0918741.3587462-.0612493.6256183-.1443734.8006164-.2493723v-2.0999775l-1.8899797.1574983c-.4899948.0349996-.8924905.1399985-1.2074871.3149966-.3149966.1749982-.4724949.4374954-.4724949.7874916 0 .3499963.1356235.6343682.4068706.8531159.2712471.2187476.7306172.3281215 1.3781102.3281215zm-.2099977-10.31613953c.9449899 0 1.8068556.09624897 2.5855973.28874691.7787416.19249794 1.4437345.4856198 1.9949786.87936558s.9756146.89249044 1.2731114 1.49623397.4462452 1.31686089.4462452 2.13935208v5.87993699c0 .4549951-.1268736.8268662-.3806209 1.1156131s-.5556191.5381192-.9056153.748117c-1.1374878.6824926-2.7387207 1.023739-4.8036986 1.023739-.92749 0-1.7631061-.0874991-2.5068481-.2624972s-1.3824852-.4374953-1.9162295-.7874916c-.5337443-.3499962-.9449898-.7962414-1.2337368-1.3387356-.2887469-.5424942-.4331203-1.1724875-.4331203-1.8899798 0-1.207487.3587461-2.1349771 1.0762385-2.7824702.7174923-.647493 1.8287304-1.0499887 3.3337142-1.207487l3.4387132-.3674961v-.18374803c0-.50749456-.2231226-.87061567-.6693678-1.08936333-.4462452-.21874765-1.0893634-.32812148-1.9293544-.32812148-.6649928 0-1.3124859.06999925-1.9424791.20999775-.6299933.1399985-1.1987372.31499662-1.7062318.52499437-.2274975-.15749831-.4199955-.39812073-.5774938-.72186726s-.2362475-.66061793-.2362475-1.01061418c0-.45499512.1093739-.81811623.3281215-1.08936333.2187477-.27124709.5556191-.50311961 1.0106142-.69561754.5074946-.19249794 1.1068631-.33249644 1.7981057-.4199955.6912426-.08749907 1.3431107-.1312486 1.9556041-.1312486z" fill="#000" fill-rule="nonzero"/></g></svg>