<svg height="84" viewBox="0 0 84 84" width="84" xmlns="http://www.w3.org/2000/svg"><g fill="none" fill-rule="evenodd"><path d="m0 0h84v84h-84z"/><circle cx="42" cy="42" fill="#000" fill-opacity=".5" r="36.75"/><g fill="#fff" fill-rule="nonzero"><path d="m42 3.9375c21.0213383 0 38.0625 17.0411617 38.0625 38.0625s-17.0411617 38.0625-38.0625 38.0625-38.0625-17.0411617-38.0625-38.0625 17.0411617-38.0625 38.0625-38.0625zm0 1.3125c-20.2964646 0-36.75 16.4535354-36.75 36.75s16.4535354 36.75 36.75 36.75 36.75-16.4535354 36.75-36.75-16.4535354-36.75-36.75-36.75z" opacity=".5"/><path d="m54.4042546 47.3396582c1.710287-1.1442434 2.7369407-3.0663464 2.7369407-5.124106s-1.0266537-3.9798626-2.7369407-5.1241059l-15.1424765-10.0589308c-1.893457-1.2699565-4.3332021-1.3912835-6.3433138-.315449-2.0101117 1.0758344-3.2623989 3.1731788-3.2559843 5.453075v20.0908214c-.0064146 2.2798963 1.2458726 4.3772406 3.2559843 5.4530751 2.0101117 1.0758344 4.4498568.9545074 6.3433138-.315449z"/></g></g></svg>