<svg height="24" viewBox="0 0 24 24" width="24" xmlns="http://www.w3.org/2000/svg"><g fill="none" fill-rule="evenodd"><path d="m0 0h24v24h-24z"/><path d="m5.25 13.875c1.03553391 0 1.875-.8394661 1.875-1.875s-.83946609-1.875-1.875-1.875-1.875.8394661-1.875 1.875.83946609 1.875 1.875 1.875zm6.75 0c1.0355339 0 1.875-.8394661 1.875-1.875s-.8394661-1.875-1.875-1.875-1.875.8394661-1.875 1.875.8394661 1.875 1.875 1.875zm6.75 0c1.0355339 0 1.875-.8394661 1.875-1.875s-.8394661-1.875-1.875-1.875-1.875.8394661-1.875 1.875.8394661 1.875 1.875 1.875z" fill="#fff"/></g></svg>