<svg height="52" viewBox="0 0 52 52" width="52" xmlns="http://www.w3.org/2000/svg"><g fill="none" fill-rule="evenodd"><circle cx="26" cy="26" fill="#8d5dff" r="26"/><g transform="translate(11 11)"><path d="m0 0h30v30h-30z"/><path d="m23.5848877 5.91613767c2.548146 2.39210844 3.9784368 5.74177193 3.9439988 9.23663173s-1.530459 6.8156877-4.1252488 9.1571183v1.1375c-.0034321 1.148018-.933232 2.0778179-2.08125 2.08125h-6.29375c-3.4504913-.0059915-6.74630325-1.4323683-9.11250003-3.94375-4.61826593-4.9214266-4.4959675-12.6202092.27628667-17.39246336 4.77225416-4.77225417 12.47103676-4.8945526 17.39246336-.27628667zm-8.65 10.26875003h-5.00000004c-.83333332 0-1.24999998.4166666-1.24999998 1.25l.00488281.1513671c.04882812.7324219.46386716 1.0986329 1.24511717 1.0986329h5.00000004c.8333333 0 1.25-.4166667 1.25-1.25l-.0048828-.1513672c-.0488282-.7324219-.4638672-1.0986328-1.2451172-1.0986328zm3.75-5h-8.75000004c-.83333332 0-1.24999998.4166666-1.24999998 1.25l.00488281.1513672c.04882812.7324218.46386716 1.0986328 1.24511717 1.0986328h8.75000004c.8333333 0 1.25-.4166667 1.25-1.25l-.0048828-.1513672c-.0488282-.7324219-.4638672-1.0986328-1.2451172-1.0986328z" fill="#fff" fill-rule="nonzero"/></g></g></svg>