<svg height="14" viewBox="0 0 14 14" width="14" xmlns="http://www.w3.org/2000/svg"><g fill="none" fill-rule="evenodd"><path d="m0 0h14v14h-14z"/><path d="m7.53958334 2.07083334c0-.02916666-.02916666-.05833334-.05833334-.0875 0-.02916666-.02916666-.02916666-.02916666-.05833334l-.02916666-.02916666c-.02916667-.02916666-.05833334-.05833334-.0875-.05833334-.02916667-.02916666-.05833334-.02916666-.0875-.05833332-.02916667 0-.05833334-.02916668-.0875-.02916668h-.20416668-.02916666c-.02916666 0-.05833334 0-.0875.02916668 0 0-.02916666 0-.02916666.02916666-.02916667 0-.02916667.02916666-.05833334.02916666-.02916668 0-.02916666.02916666-.05833334.02916668 0 0-.02916666 0-.02916666.02916666l-3.00416666 2.45h-.72916668c-.9625 0-1.75.7875-1.75 1.75v1.75c0 .9625.7875 1.75 1.75 1.75h.72916668l2.975 2.47916666s.02916666 0 .02916666.0291667l.02916666.0291666c.02916666 0 .02916666.0291667.05833334.0291667 0 0 .02916666 0 .02916666.0291667.02916666 0 .05833334.0291666.05833334.0291666h.29166666c.02916666 0 .05833334 0 .0875-.0291666h.02916668c.02916666 0 .05833333-.0291667.05833332-.0291667s.02916666 0 .02916668-.0291667l.05833332-.0583333.02916668-.0291667.02916666-.0291666.02916666-.0291667.02916668-.0291667c0-.0291666.02916666-.0291666.02916666-.0583333 0 0 0-.0291667.02916666-.0291667 0-.0291666.02916668-.0583333.02916668-.0583333v-.0291667-.0875-9.39166662c0-.02916667 0-.0875-.02916668-.11666668 0-.05833334-.02916666-.0875-.02916666-.11666666zm4.31666666 4.9.8166667-.81666666.0583333-.05833334c.2041667-.23333334.175-.58333334-.0583333-.7875-.2333334-.23333334-.6125-.20416666-.8166667.02916666l-.8166667.81666668-.8166666-.81666668-.0583334-.05833332c-.2333333-.175-.55416662-.175-.7583333.05833332-.23333334.23333334-.23333334.58333334 0 .81666668l.8166667.81666666-.8166667.81666666-.0875.05833334c-.20416666.23333334-.175.58333334.05833334.7875.23333334.23333334.6125.20416666.81666666-.02916666l.8166667-.81666668.8166666.81666668.0583334.05833332c.2333333.20416666.5833333.175.7875-.05833332.2333333-.23333334.2041666-.6125-.0291667-.81666668z" fill="#fff" fill-rule="nonzero"/></g></svg>