<svg height="20" viewBox="0 0 20 20" width="20" xmlns="http://www.w3.org/2000/svg"><g fill="none" fill-rule="evenodd"><path d="m0 0h20v20h-20z"/><g fill-rule="nonzero"><path d="m8.70990131.77102927c.68613894-.68595507 1.78234169-.7349117 2.52689689-.11285171l.1226649.11285171 1.7761877 1.77618767h2.512177c.9801573-.00026268 1.7950032.75469956 1.869413 1.73202834v2.65446833l1.7761877 1.7761877c.6859551.68613894.7349117 1.78234169.1128517 2.52689689l-.1128517.1226649-1.7761877 1.7761877v2.512177c.0002627.9801573-.7546995 1.7950032-1.7320283 1.869413h-2.6495617l-1.7761877 1.7810943c-.686139.6859551-1.78234175.7349117-2.5268969.1128517l-.12266489-.1128517-1.7761877-1.7761877h-2.51217705c-.98015728.0002627-1.7950032-.7546995-1.86941301-1.7320283v-2.6544683l-1.78109428-1.7761877c-.68595507-.686139-.7349117-1.78234175-.11285171-2.5268969l.11285171-.12266489 1.77618767-1.7761877v-2.51217705c-.00026268-.98015728.75469956-1.7950032 1.73202834-1.86941301h2.65446833z" fill="#08ecb0"/><path d="m12.9786397 7.00154164c.3639096-.37887153.961644-.4039563 1.3560179-.05690724.3943739.34704907.4454896.94312185.1159608 1.35224853l-.0834121.08831873-4.78883753 4.79374414c-.38823257.3850688-1.00243099.4208269-1.43272597.0834121l-.07359894-.0834121-2.36007261-2.3600726c-.37887152-.3639096-.4039563-.96164397-.05690723-1.35601791s.94312185-.44548961 1.35224853-.11596083l.09322534.08341211 1.73202831 1.73202833z" fill="#fff"/></g></g></svg>