<svg height="114" viewBox="0 0 317 114" width="317" xmlns="http://www.w3.org/2000/svg" xmlns:xlink="http://www.w3.org/1999/xlink"><defs><rect id="a" height="32" rx="9" width="275" x="21" y="8"/><filter id="b" height="181.2%" width="109.5%" x="-4.7%" y="-34.4%"><feOffset dx="0" dy="2" in="SourceAlpha" result="shadowOffsetOuter1"/><feGaussianBlur in="shadowOffsetOuter1" result="shadowBlurOuter1" stdDeviation="4"/><feColorMatrix in="shadowBlurOuter1" type="matrix" values="0 0 0 0 0   0 0 0 0 0   0 0 0 0 0  0 0 0 0.079209121 0"/></filter></defs><g fill="none" fill-rule="evenodd"><rect fill="#fbfbfb" height="112.5" rx="10" stroke="#efefef" stroke-width=".5" width="315.5" x=".75" y=".75"/><g transform="translate(1 1)"><use fill="#000" filter="url(#b)" xlink:href="#a"/><use fill="#fff" fill-rule="evenodd" xlink:href="#a"/></g><circle cx="158" cy="67" fill="#8d5dff" fill-opacity=".12" r="37"/><circle cx="158" cy="67" fill="#fff" r="31.9" stroke="#8d5dff" stroke-width="2.2"/><g transform="translate(13 55)"><path d="m0 0h24v24h-24z"/><path d="m15.3257359 4.57573593c.2343146-.23431457.6142136-.23431457.8485282 0 .2343145.23431458.2343145.61421356 0 .84852814l-7.0752641 7.07573593 7.0752641 7.0757359c.2082796.2082797.2314218.5315889.0694265.7654307l-.0694265.0830975c-.2343146.2343145-.6142136.2343145-.8485282 0l-7.49999997-7.5c-.23431457-.2343146-.23431457-.6142136 0-.8485282z" fill="#b0b0b0" fill-rule="nonzero"/></g><g transform="translate(78 55)"><path d="m0 0h24v24h-24z"/><path d="m15.3257359 4.57573593c.2343146-.23431457.6142136-.23431457.8485282 0 .2343145.23431458.2343145.61421356 0 .84852814l-7.0752641 7.07573593 7.0752641 7.0757359c.2082796.2082797.2314218.5315889.0694265.7654307l-.0694265.0830975c-.2343146.2343145-.6142136.2343145-.8485282 0l-7.49999997-7.5c-.23431457-.2343146-.23431457-.6142136 0-.8485282z" fill="#b0b0b0" fill-rule="nonzero" transform="matrix(-1 0 0 1 24 0)"/></g><g transform="translate(143 50.5)"><path d="m0 0h30v30h-30z"/><path d="m18.5 8.449 3.5.001c1.9882251 0 3.6 1.6117749 3.6 3.6v13c0 1.9882251-1.6117749 3.6-3.6 3.6h-14c-1.9882251 0-3.6-1.6117749-3.6-3.6v-13c0-1.9882251 1.6117749-3.6 3.6-3.6l3.5-.001v1.6l-3.5.001c-1.1045695 0-2 .8954305-2 2v13c0 1.1045695.8954305 2 2 2h14c1.1045695 0 2-.8954305 2-2v-13c0-1.1045695-.8954305-2-2-2l-3.5-.001zm-2.9517082-6.98155999 4.25 4c.321739.30281317.3370814.80911275.0342682 1.13085175s-.8091128.33708141-1.1308518.03426823l-2.9017082-2.73155999v14.349c0 .4418278-.3581722.8-.8.8s-.8-.3581722-.8-.8v-14.349l-2.9017082 2.73155999c-.29249.27528471-.7375094.28763091-1.0435128.04587333l-.087339-.08014156c-.30281317-.321739-.28747076-.82803858.0342682-1.13085175l4.25-4c.30804-.28992001.7885436-.28992001 1.0965836 0z" fill="#037bff"/></g><g transform="translate(214 55)"><path d="m0 0h24v24h-24z"/><path d="m16.75 3.3c2.5197723 0 4.4639512.81860167 5.71 2.48.1557866.20771541.24.46035574.24.72v12.75c0 1.0690858-1.2925703 1.604486-2.0485281.8485281-.7437664-.7437664-2.0255119-1.1485281-3.9014719-1.1485281-1.8435861 0-3.092459.4601111-3.8388921 1.3309496-.4789147.5587339-1.3433011.5587339-1.8222158 0-.7464331-.8708385-1.99530605-1.3309496-3.8388921-1.3309496-1.87595996 0-3.15770546.4047617-3.90147186 1.1485281-.75595784.7559579-2.04852814.2205577-2.04852814-.8485281v-12.75c0-.25964426.08421345-.51228459.24-.72 1.24604875-1.66139833 3.19022771-2.48 5.71-2.48 1.88982922 0 3.4558872.46046344 4.6464787 1.39159758l.1035213.08440242.1035213-.08440242c1.1244475-.87940447 2.5838019-1.33898229 4.3345139-1.38733228zm-9.5 1.2c-2.16666667 0-3.75.66666667-4.75 2v12.75c1-1 2.58333333-1.5 4.75-1.5 1.77546296 0 3.1592239.391702 4.1512828 1.1751061l-.0004239-13.08251024c-.9920292-.89506391-2.37564882-1.34259586-4.1508589-1.34259586zm9.5 0c-1.7746032 0-3.1578836.447226-4.1498413 1.341678l-.0010513 13.08312c.9920315-.7831987 2.3756624-1.174798 4.1508926-1.174798 2.1666667 0 3.75.5 4.75 1.5v-12.75c-1-1.33333333-2.5833333-2-4.75-2z" fill="#037bff" fill-rule="nonzero"/></g><g transform="translate(279 55)"><path d="m0 0h24v24h-24z"/><path d="m14 2.1c1.7673112 0 3.2 1.4326888 3.2 3.2v1.299l1.8.001c1.7673112 0 3.2 1.4326888 3.2 3.2v9c0 1.7673112-1.4326888 3.2-3.2 3.2h-9c-1.7673112 0-3.2-1.4326888-3.2-3.2l-.001-1.3h-1.799c-1.7673112 0-3.2-1.4326888-3.2-3.2v-9c0-1.7673112 1.4326888-3.2 3.2-3.2zm5 5.7h-9c-1.1045695 0-2 .8954305-2 2v9c0 1.1045695.8954305 2 2 2h9c1.1045695 0 2-.8954305 2-2v-9c0-1.1045695-.8954305-2-2-2zm-5-4.5h-9c-1.1045695 0-2 .8954305-2 2v9c0 1.1045695.8954305 2 2 2h1.799l.001-6.5c0-1.7673112 1.4326888-3.2 3.2-3.2l6-.001v-1.299c0-1.1045695-.8954305-2-2-2z" fill="#037bff" fill-rule="nonzero"/></g></g></svg>