<svg height="114" viewBox="0 0 317 114" width="317" xmlns="http://www.w3.org/2000/svg" xmlns:xlink="http://www.w3.org/1999/xlink"><linearGradient id="a" x1="0%" x2="100%" y1="50%" y2="50%"><stop offset="0" stop-color="#f7f7f7"/><stop offset="1" stop-color="#fcfcfc"/></linearGradient><mask id="b" fill="#fff"><rect fill="#fff" fill-rule="evenodd" height="112" rx="10" width="315"/></mask><g fill="none" fill-rule="evenodd" transform="translate(1 1)"><rect height="112.5" rx="10" stroke="#efefef" stroke-width=".5" width="315.5" x="-.25" y="-.25"/><g mask="url(#b)"><g transform="translate(14 -13)"><path d="m0 0h287v80c0 6.0751322-4.924868 11-11 11h-265c-6.07513225 0-11-4.9248678-11-11z" fill="#fff"/><path d="m0 49.25h287v1h-287z" fill="#efefef"/><rect fill="#f7f7f7" height="17" rx="3" width="17" x="254" y="21"/><rect fill="url(#a)" height="19" rx="4" width="91" x="15" y="20"/></g></g><g mask="url(#b)"><g transform="translate(14 88)"><rect fill="#fff" height="91" rx="11" width="287"/><rect fill="#f7f7f7" height="17" rx="3" width="17" x="254" y="16"/><rect fill="url(#a)" height="19" rx="4" width="91" x="15" y="15"/></g></g></g></svg>