<svg height="24" viewBox="0 0 24 24" width="24" xmlns="http://www.w3.org/2000/svg"><g fill="none" fill-rule="evenodd"><path d="m0 0h24v24h-24z"/><g fill="#fff" fill-rule="nonzero"><path d="m12.8087774 1.96363636c3.9910119 0 7.2389568 3.1821743 7.3439097 7.1479975l.0027988.19871097v.34984326h.3498433c.9660654 0 1.7492163.78315081 1.7492163 1.74921631v2.4489028c0 .463921-.1842919.908841-.5123336 1.2368827s-.7729617.5123336-1.2368827.5123336l-.3449455.0006997c-.1063524 3.946232-2.4524013 6.566558-7.1102144 6.6449229l-.0279875.0006997-.0384827.0006997-.0944577-.0006997-.080464.0006997h-1.399373l-.1749216.0006996c-.9660655 0-1.74921634-.7831508-1.74921634-1.7492163v-.6996865c0-.9660655.78315084-1.7492163 1.74921634-1.7492163h1.7492163c.9660654 0 1.7492163.7831508 1.7492163 1.7492163v.1539311c2.3775348-.551353 3.3885818-2.252291 3.3291084-4.8670195l-.0055975-.1854169v-5.59749217c-.0000235-2.83199014-2.2471217-5.15309368-5.077625-5.24485016l-.1700239-.00279875h-1.399373c-2.83199015.00002355-5.15309369 2.24712179-5.24485017 5.07762508l-.00279874.17002383v4.54796237c0 .9660655-.78315082 1.7492163-1.74921631 1.7492163h-.69968652c-.96606548 0-1.7492163-.7831508-1.7492163-1.7492163v-2.4489028c0-.9660655.78315082-1.74921631 1.7492163-1.74921631h.34984326v-.34984326c0-3.99101191 3.1821743-7.23895674 7.14799748-7.34390972l.198711-.00279875z"/><path d="m14.9369763 12.8310672c.3948836-.3865993 1.0284007-.3798836 1.415.015s.3798836 1.0284007-.015 1.415c-2.3330611 2.2868573-6.0669389 2.2868573-8.4 0-.39488359-.3865993-.40159932-1.0201164-.015-1.415s1.0201164-.4015993 1.41499999-.015c1.55537401 1.5245715 4.04462601 1.5245715 5.60000001 0z"/></g></g></svg>