<?xml version="1.0" encoding="UTF-8"?>
<svg width="43px" height="43px" viewBox="0 0 43 43" version="1.1" xmlns="http://www.w3.org/2000/svg" xmlns:xlink="http://www.w3.org/1999/xlink">
    <title>游戏-选中@2x</title>
    <defs>
        <linearGradient x1="28.8038186%" y1="25.5801202%" x2="70.6736247%" y2="74.9378496%" id="linearGradient-1">
            <stop stop-color="#A5F9FF" offset="0%"></stop>
            <stop stop-color="#B9D1FF" offset="29.5157479%"></stop>
            <stop stop-color="#8F5EFF" offset="60.1696694%"></stop>
            <stop stop-color="#EF3FFF" offset="100%"></stop>
        </linearGradient>
        <linearGradient x1="22.9045713%" y1="27.5392729%" x2="36.1519139%" y2="42.4329189%" id="linearGradient-2">
            <stop stop-color="#FFFFFF" stop-opacity="0.75" offset="0%"></stop>
            <stop stop-color="#FFFFFF" stop-opacity="0" offset="100%"></stop>
        </linearGradient>
        <path d="M6.06186146,0.495408208 C8.79151698,-0.187005671 15.6875915,-0.162896598 18.5725661,0.55834703 C21.4575406,1.27959066 23.7849109,3.26523865 24.0577585,5.72086675 L25.0589259,14.7313737 C25.2775354,16.6988593 23.8597912,18.4710395 21.8923057,18.689649 C21.152843,18.7718115 20.4061383,18.6218298 19.7557538,18.260505 L17.1709467,16.824501 C16.1809129,16.2744823 15.0670387,15.9858485 13.9344808,15.9858485 L10.4411402,15.9858485 C9.19212064,15.9858485 7.96823942,16.336853 6.90907296,16.998832 L4.93346329,18.2335881 C3.42331922,19.1774281 1.43397203,18.718348 0.490131987,17.2082039 C0.1052869,16.5924518 -0.0604603911,15.8648287 0.0197266186,15.1431456 L1.00424791,6.28245394 C1.31496518,3.48599856 3.33220595,1.17782209 6.06186146,0.495408208 Z" id="path-3"></path>
        <filter x="-12.0%" y="-16.0%" width="123.9%" height="132.0%" filterUnits="objectBoundingBox" id="filter-5">
            <feGaussianBlur stdDeviation="2" in="SourceAlpha" result="shadowBlurInner1"></feGaussianBlur>
            <feOffset dx="-2" dy="-2" in="shadowBlurInner1" result="shadowOffsetInner1"></feOffset>
            <feComposite in="shadowOffsetInner1" in2="SourceAlpha" operator="arithmetic" k2="-1" k3="1" result="shadowInnerInner1"></feComposite>
            <feColorMatrix values="0 0 0 0 0.951098511   0 0 0 0 0.692619212   0 0 0 0 1  0 0 0 1 0" type="matrix" in="shadowInnerInner1"></feColorMatrix>
        </filter>
        <filter x="-103.2%" y="-103.2%" width="306.5%" height="306.5%" filterUnits="objectBoundingBox" id="filter-6">
            <feGaussianBlur stdDeviation="4" in="SourceGraphic"></feGaussianBlur>
        </filter>
        <path d="M19.2,12.9226042 C19.8075132,12.9226042 20.3,12.4301175 20.3,11.8226042 C20.3,11.215091 19.8075132,10.7226042 19.2,10.7226042 C18.5924868,10.7226042 18.1,11.215091 18.1,11.8226042 C18.1,12.4301175 18.5924868,12.9226042 19.2,12.9226042 Z M21.5,16.4226042 C22.1075132,16.4226042 22.6,15.9301175 22.6,15.3226042 C22.6,14.715091 22.1075132,14.2226042 21.5,14.2226042 C20.8924868,14.2226042 20.4,14.715091 20.4,15.3226042 C20.4,15.9301175 20.8924868,16.4226042 21.5,16.4226042 Z" id="path-7"></path>
        <filter x="-22.2%" y="-8.8%" width="144.4%" height="135.1%" filterUnits="objectBoundingBox" id="filter-8">
            <feOffset dx="0" dy="0.5" in="SourceAlpha" result="shadowOffsetOuter1"></feOffset>
            <feGaussianBlur stdDeviation="0.25" in="shadowOffsetOuter1" result="shadowBlurOuter1"></feGaussianBlur>
            <feColorMatrix values="0 0 0 0 0.550923729   0 0 0 0 0.288072433   0 0 0 0 0.712222777  0 0 0 0.698625471 0" type="matrix" in="shadowBlurOuter1"></feColorMatrix>
        </filter>
        <filter x="-22.2%" y="-8.8%" width="144.4%" height="135.1%" filterUnits="objectBoundingBox" id="filter-9">
            <feGaussianBlur stdDeviation="0.25" in="SourceAlpha" result="shadowBlurInner1"></feGaussianBlur>
            <feOffset dx="0" dy="-0.5" in="shadowBlurInner1" result="shadowOffsetInner1"></feOffset>
            <feComposite in="shadowOffsetInner1" in2="SourceAlpha" operator="arithmetic" k2="-1" k3="1" result="shadowInnerInner1"></feComposite>
            <feColorMatrix values="0 0 0 0 0.799328624   0 0 0 0 0.714835413   0 0 0 0 1  0 0 0 1 0" type="matrix" in="shadowInnerInner1"></feColorMatrix>
        </filter>
    </defs>
    <g id="PWA-Emma" stroke="none" stroke-width="1" fill="none" fill-rule="evenodd">
        <g id="4.游戏" transform="translate(-94, -757)">
            <g id="toolbar" transform="translate(0, 748)">
                <g id="游戏-选中" transform="translate(94, 9)">
                    <rect id="蒙版" fill="#33253C" x="0" y="0" width="43" height="43" rx="17"></rect>
                    <g id="tb/游戏_f" transform="translate(6, 6)">
                        <rect id="矩形" x="0" y="0" width="31" height="31"></rect>
                        <path d="M8.74048688,5.68455177 C11.5789752,4.97492969 18.75,5 21.75,5.75 C24.75,6.5 27.1701639,8.56481685 27.45389,11.1183522 L28.4949745,20.4881128 C28.7223001,22.5340432 27.2480297,24.3768812 25.2020994,24.6042068 C24.433154,24.6896451 23.6566778,24.5336835 22.9803621,24.1579525 L20.2924973,22.6646943 C19.2629903,22.092746 18.1047054,21.7926042 16.9269918,21.7926042 L13.2943698,21.7926042 C11.9955512,21.7926042 10.7228732,22.1576035 9.62147716,22.845976 L7.56709887,24.1299624 C5.99674454,25.1114339 3.92808101,24.63405 2.94660955,23.0636957 C2.54642049,22.4233932 2.37406476,21.6667593 2.45744887,20.9163023 L3.48122356,11.7023301 C3.80432929,8.79437857 5.90199853,6.39417386 8.74048688,5.68455177 Z" id="路径" fill="url(#linearGradient-1)"></path>
                        <g id="椭圆形" transform="translate(3.4369, 6.1694)">
                            <mask id="mask-4" fill="white">
                                <use xlink:href="#path-3"></use>
                            </mask>
                            <g id="蒙版">
                                <use fill-opacity="0" fill="#FFFFFF" fill-rule="evenodd" xlink:href="#path-3"></use>
                                <use fill="black" fill-opacity="1" filter="url(#filter-5)" xlink:href="#path-3"></use>
                                <path stroke="url(#linearGradient-2)" stroke-width="0.2" d="M6.08611502,0.592422458 C8.80520028,-0.0873488559 15.6745378,-0.0630823849 18.5483125,0.65536128 C20.0085,1.02040815 21.3245982,1.71255684 22.2970161,2.62777122 C23.2159169,3.49261662 23.8278078,4.55684892 23.9583701,5.7319099 L24.9595375,14.7424168 C25.0657928,15.6987143 24.7743728,16.6075476 24.2173146,17.3038704 C23.6602564,18.0001931 22.83756,18.4840054 21.8812625,18.5902606 C21.1624301,18.6701309 20.4365576,18.5243335 19.8043181,18.1730893 L17.219511,16.7370853 C16.2146214,16.1788133 15.0840332,15.8858485 13.9344808,15.8858485 L10.4411402,15.8858485 C9.17337867,15.8858485 7.93113269,16.24212 6.85607307,16.9140322 L4.8804634,18.1487883 C4.14880819,18.6060728 3.30106754,18.7235043 2.52191958,18.5437009 C1.74277161,18.3638976 1.03221632,17.8868593 0.574931817,17.1552041 C0.202021818,16.5585481 0.0414147984,15.8534905 0.119114992,15.1541887 L1.10363629,6.29349709 C1.25668694,4.91604117 1.83003054,3.65884153 2.70124952,2.66197136 C3.5724685,1.6651012 4.74156285,0.928560501 6.08611502,0.592422458 Z" stroke-linejoin="square"></path>
                            </g>
                            <circle fill-opacity="0.846641274" fill="#FFFFFF" filter="url(#filter-6)" mask="url(#mask-4)" cx="5.37556426" cy="4.64310863" r="5.8125"></circle>
                        </g>
                        <g id="形状结合" fill-rule="nonzero">
                            <use fill="black" fill-opacity="1" filter="url(#filter-8)" xlink:href="#path-7"></use>
                            <use fill="#FFFFFF" xlink:href="#path-7"></use>
                            <use fill="black" fill-opacity="1" filter="url(#filter-9)" xlink:href="#path-7"></use>
                        </g>
                        <path d="M14.0160684,3.09223535 C16.3914108,2.48458962 18.2334387,4.98079565 17.2518722,7.59830633 C16.6753875,9.13559898 15.5353368,10.5827083 13.9838066,11.9472345 L13.674,12.213948 L13.7652318,12.6947344 C14.9079141,18.5540712 16.904597,22.9608996 19.7305382,25.9328687 L20.0066043,26.216 C20.4244652,26.633861 20.4244652,27.3113475 20.0066043,27.7292085 C19.5887433,28.1470695 18.9112567,28.1470695 18.4933957,27.7292085 C15.2855351,24.5213479 13.0557832,19.8300054 11.7791918,13.672977 L11.774,13.648948 L11.6727878,13.7200607 C11.4831012,13.8479998 11.2924697,13.9729092 11.1013694,14.0947202 L10.5271375,14.4507893 C10.1916993,14.6531171 9.87954828,14.8314891 9.59821034,14.9845982 C9.42627995,15.0781658 9.30052757,15.1436368 9.22851855,15.1796413 C8.69996155,15.4439198 8.0572414,15.2296798 7.79296291,14.7011228 C7.52868441,14.1725658 7.74292446,13.5298456 8.27148145,13.2655672 C8.32192141,13.2403472 8.42576087,13.1862847 8.57525904,13.1049252 C8.82963539,12.9664891 9.11442315,12.8037532 9.4218421,12.6183259 C9.94919599,12.3002394 10.4764873,11.9560793 10.9901157,11.5890296 L11.353,11.320948 L11.3435802,11.252355 C10.7091152,6.77202305 11.6912771,3.81471163 13.8592056,3.13677286 L14.0160684,3.09223535 Z M15.2481278,6.84690217 C15.660684,5.74675212 15.1229156,5.01800048 14.5464316,5.16547314 C13.748893,5.36949463 13.1561499,6.77127087 13.3002201,9.36952079 L13.317,9.63594795 L13.3634438,9.59071425 C14.1776517,8.76098824 14.7880434,7.92165048 15.147775,7.09462013 L15.2481278,6.84690217 Z" id="路径-13" fill="#FFF133" fill-rule="nonzero"></path>
                    </g>
                </g>
            </g>
        </g>
    </g>
</svg>