<svg height="43" viewBox="0 0 43 43" width="43" xmlns="http://www.w3.org/2000/svg" xmlns:xlink="http://www.w3.org/1999/xlink"><linearGradient id="a" x1="24.095545%" x2="80.519216%" y1="10.047823%" y2="89.416332%"><stop offset="0" stop-color="#ffc6f4"/><stop offset="1" stop-color="#adc2fc"/></linearGradient><g fill="none" fill-rule="evenodd"><path d="m0 0h43v43h-43z"/><g transform="translate(6 6)"><path d="m0 0h31v31h-31z"/><path d="m17.2518722 7.59830633c-.5764847 1.53729265-1.7165354 2.98440197-3.2680656 4.34892817l-.3098066.2667135.0912318.4807864c.5082637 2.6062262 1.1854881 4.9250795 2.0294957 6.9581128l1.1322643-.000243c1.5413943 0 3.0573603.3928263 4.4047814 1.1413936l2.6878647 1.4932582c.2880125.1600069.6186788.2264239.946138.1900396.8712697-.0968078 1.4990952-.8815896 1.4022874-1.7528593l-1.0410845-9.3697607c-.175952-1.58356767-1.4010004-2.84749693-2.9782997-3.07282539l-2.7964645-.39949494c-.5850054-.0835722-.9914973-.62556142-.9079251-1.21056681s.6255614-.99149731 1.2105668-.90792511l2.7964646.39949494c2.5434272.36334675 4.518843 2.40145856 4.8025691 4.95499391l1.0410845 9.3697606c.2273256 2.0459304-1.2469448 3.8887684-3.2928751 4.116094-.7689454.0854383-1.5454216-.0705233-2.2217373-.4462543l-2.6878648-1.4932582c-1.029507-.5719483-2.1877919-.8720901-3.3655055-.8720901l-.1266298.0003529c.8492471 1.5995459 1.8264638 2.979166 2.9301762 4.1399116l.2760661.2831313c.4178609.417861.4178609 1.0953475 0 1.5132085-.417861.417861-1.0953476.417861-1.5132086 0-1.6070141-1.6070141-2.9685599-3.5863262-4.0877738-5.9356989l-1.1112521-.0009054c-1.2988186 0-2.5714966.3649993-3.67289264 1.0533718l-2.05437829 1.2839864c-1.57035433.9814715-3.63901786.5040876-4.62048932-1.0662667-.40018906-.6403025-.57254479-1.3969364-.48916068-2.1473934l1.02377469-9.2139722c.32310573-2.90795153 2.42077497-5.30815624 5.25926332-6.01777833.57330055-.14332514 1.15424046.20523881 1.29756562.77853936.1433251.57330055-.20523883 1.15424045-.77853938 1.29756559-1.97069329.49267333-3.42705394 2.15907697-3.65137837 4.17799688l-1.02377469 9.2139722c-.03016624.2714962.03218766.545227.17696586.7768721.35507135.5681142 1.10346106.7408195 1.67157521.3857482l2.0543783-1.2839865c1.44150962-.9009435 3.10719357-1.3786554 4.80709037-1.3786554l.1973449.0003524c-.6907159-1.8095994-1.2611894-3.803188-1.7125229-5.9799796l-.0051918-.024029-.1012122.0711127c-.1896866.1279391-.3803181.2528485-.5714184.3746595l-.5742319.3560691c-.3354382.2023278-.64758922.3806998-.92892716.5338089-.17193039.0935676-.29768277.1590386-.36969179.1950431-.528557.2642785-1.17127715.0500385-1.43555564-.4785185-.2642785-.528557-.05003845-1.1712772.47851854-1.4355556.05043996-.02522.15427942-.0792825.30377759-.160642.25437635-.1384361.53916411-.301172.84658306-.4865993.52735389-.3180865 1.0546452-.6622466 1.5682736-1.0292963l.3628843-.2680816-.0094198-.068593c-.634465-4.48033195.3476969-7.43764337 2.5156254-8.11558214l.1568628-.04453751c2.3753424-.60764573 4.2173703 1.8885603 3.2358038 4.50607098zm4.2481278 6.62429787c.6075132 0 1.1.4924868 1.1 1.1 0 .6075133-.4924868 1.1-1.1 1.1s-1.1-.4924867-1.1-1.1c0-.6075132.4924868-1.1 1.1-1.1zm-2.3-3.5c.6075132 0 1.1.4924868 1.1 1.1 0 .6075133-.4924868 1.1-1.1 1.1s-1.1-.4924867-1.1-1.1c0-.6075132.4924868-1.1 1.1-1.1zm-4.6535684-5.55713106c-.7975386.20402149-1.3902817 1.60579773-1.2462115 4.20404765l.0167799.26642716.0464438-.0452337c.8142079-.82972601 1.4245996-1.66906377 1.7843312-2.49609412l.1003528-.24771796c.4125562-1.10015005-.1252122-1.82890169-.7016962-1.68142903z" fill="url(#a)"/></g></g></svg>