<?xml version="1.0" encoding="UTF-8"?>
<svg width="43px" height="43px" viewBox="0 0 43 43" version="1.1" xmlns="http://www.w3.org/2000/svg" xmlns:xlink="http://www.w3.org/1999/xlink">
    <title>匹配-选中@2x</title>
    <defs>
        <linearGradient x1="33.4835082%" y1="6.18378548%" x2="66.1093051%" y2="94.7455997%" id="linearGradient-1">
            <stop stop-color="#A5F9FF" offset="0%"></stop>
            <stop stop-color="#B9D1FF" offset="29.5157479%"></stop>
            <stop stop-color="#8F5EFF" offset="60.1696694%"></stop>
            <stop stop-color="#EF3FFF" offset="100%"></stop>
        </linearGradient>
        <linearGradient x1="28.8866958%" y1="9.6990631%" x2="39.2092922%" y2="36.4225028%" id="linearGradient-2">
            <stop stop-color="#FFFFFF" stop-opacity="0.75" offset="0%"></stop>
            <stop stop-color="#FFFFFF" stop-opacity="0" offset="100%"></stop>
        </linearGradient>
        <path d="M10.2059563,1.72084569e-15 C4.5751726,0.0042446509 0.00998892567,4.5648269 0,10.1956035 C-0.00916253208,13.0883658 0.950533977,15.9009103 2.72609436,18.184667 C4.39447173,20.3112854 6.6071964,21.9468355 9.12968943,22.9179267 C9.82363143,23.1899855 10.5947105,23.1899855 11.2886525,22.9179267 C13.8476369,21.9187572 16.0815977,20.233387 17.7449679,18.0470797 C19.4660934,15.7907186 20.4021922,13.0334491 20.4105608,10.1956035 C20.4006393,4.56532839 15.836238,0.00495310982 10.2059563,1.72084569e-15 L10.2059563,1.72084569e-15 Z" id="path-3"></path>
        <filter x="-14.7%" y="-13.0%" width="129.4%" height="125.9%" filterUnits="objectBoundingBox" id="filter-5">
            <feGaussianBlur stdDeviation="2" in="SourceAlpha" result="shadowBlurInner1"></feGaussianBlur>
            <feOffset dx="-2" dy="-2" in="shadowBlurInner1" result="shadowOffsetInner1"></feOffset>
            <feComposite in="shadowOffsetInner1" in2="SourceAlpha" operator="arithmetic" k2="-1" k3="1" result="shadowInnerInner1"></feComposite>
            <feColorMatrix values="0 0 0 0 0.951098511   0 0 0 0 0.692619212   0 0 0 0 1  0 0 0 1 0" type="matrix" in="shadowInnerInner1"></feColorMatrix>
        </filter>
        <filter x="-103.2%" y="-103.2%" width="306.5%" height="306.5%" filterUnits="objectBoundingBox" id="filter-6">
            <feGaussianBlur stdDeviation="4" in="SourceGraphic"></feGaussianBlur>
        </filter>
        <path d="M21.4127155,10.65625 C22.0030889,10.65625 22.481681,11.1348422 22.481681,11.7252155 L22.481681,13.3286638 C22.481681,13.9190371 22.0030889,14.3976293 21.4127155,14.3976293 C20.8223422,14.3976293 20.34375,13.9190371 20.34375,13.3286638 L20.34375,11.7252155 C20.34375,11.1348422 20.8223422,10.65625 21.4127155,10.65625 Z" id="path-7"></path>
        <filter x="-46.8%" y="-13.4%" width="193.5%" height="153.5%" filterUnits="objectBoundingBox" id="filter-8">
            <feOffset dx="0" dy="0.5" in="SourceAlpha" result="shadowOffsetOuter1"></feOffset>
            <feGaussianBlur stdDeviation="0.25" in="shadowOffsetOuter1" result="shadowBlurOuter1"></feGaussianBlur>
            <feColorMatrix values="0 0 0 0 0.550923729   0 0 0 0 0.288072433   0 0 0 0 0.712222777  0 0 0 0.698625471 0" type="matrix" in="shadowBlurOuter1"></feColorMatrix>
        </filter>
        <filter x="-46.8%" y="-13.4%" width="193.5%" height="153.5%" filterUnits="objectBoundingBox" id="filter-9">
            <feGaussianBlur stdDeviation="0.25" in="SourceAlpha" result="shadowBlurInner1"></feGaussianBlur>
            <feOffset dx="0" dy="-0.5" in="shadowBlurInner1" result="shadowOffsetInner1"></feOffset>
            <feComposite in="shadowOffsetInner1" in2="SourceAlpha" operator="arithmetic" k2="-1" k3="1" result="shadowInnerInner1"></feComposite>
            <feColorMatrix values="0 0 0 0 0.799328624   0 0 0 0 0.714835413   0 0 0 0 1  0 0 0 1 0" type="matrix" in="shadowInnerInner1"></feColorMatrix>
        </filter>
    </defs>
    <g id="PWA-Emma" stroke="none" stroke-width="1" fill="none" fill-rule="evenodd">
        <g id="图标切图" transform="translate(-21, -63)">
            <g id="匹配-选中" transform="translate(21, 63)">
                <rect id="蒙版" fill="#33253C" x="0" y="0" width="43" height="43" rx="17"></rect>
                <g id="定位_f" transform="translate(6, 6)">
                    <rect id="矩形" x="0" y="0" width="31" height="31"></rect>
                    <path d="M15.500708,3.52758621 C9.60266954,3.53203232 4.82080786,8.30907418 4.81034483,14.2071051 C4.80074741,17.2371671 5.80599414,20.1832038 7.66582822,22.5753548 C9.41339203,24.8029092 11.7311396,26.5160877 14.3733581,27.5332699 C15.1002368,27.8182415 15.9079137,27.8182415 16.6347923,27.5332699 C19.3152342,26.4866767 21.6552258,24.7213136 23.3975448,22.4312371 C25.2003603,20.0677821 26.1808894,17.1796439 26.1896552,14.2071051 C26.1792627,8.30959946 21.3982205,3.53277441 15.500708,3.52758621 L15.500708,3.52758621 Z" id="路径" fill="url(#linearGradient-1)"></path>
                    <g id="椭圆形" transform="translate(5.7791, 4.4963)">
                        <mask id="mask-4" fill="white">
                            <use xlink:href="#path-3"></use>
                        </mask>
                        <g id="蒙版">
                            <use fill-opacity="0" fill="#FFFFFF" fill-rule="evenodd" xlink:href="#path-3"></use>
                            <use fill="black" fill-opacity="1" filter="url(#filter-5)" xlink:href="#path-3"></use>
                            <path stroke="url(#linearGradient-2)" stroke-width="0.2" d="M10.2058683,0.0999999613 C12.9934465,0.102452269 15.5171636,1.23260974 17.3452141,3.05904787 C19.1732647,4.88548599 20.3056488,7.40820477 20.3105612,10.1953086 C20.302257,13.0113399 19.3733539,15.7474144 17.6653829,17.9865304 C16.013146,20.1582042 13.7941376,21.8322938 11.2521525,22.8248259 C10.5816744,23.0876858 9.8366675,23.0876858 9.16561639,22.8246033 C6.65996355,21.8599951 4.46201104,20.235364 2.80504122,18.1232879 C1.04319267,15.8571676 0.0909077245,13.066343 0.0999998426,10.1957809 C0.104945413,7.40795362 1.23754295,4.88505614 3.06586216,3.05859157 C4.89417637,1.23213198 7.41820849,0.102101515 10.2058683,0.0999999613 Z" stroke-linejoin="square"></path>
                        </g>
                        <circle fill-opacity="0.846641274" fill="#FFFFFF" filter="url(#filter-6)" mask="url(#mask-4)" cx="4.87715517" cy="4.22241379" r="5.8125"></circle>
                    </g>
                    <g id="路径-36" fill-rule="nonzero">
                        <use fill="black" fill-opacity="1" filter="url(#filter-8)" xlink:href="#path-7"></use>
                        <use fill="#FFFFFF" xlink:href="#path-7"></use>
                        <use fill="black" fill-opacity="1" filter="url(#filter-9)" xlink:href="#path-7"></use>
                    </g>
                    <path d="M12.0432663,13.5988767 C15.6795876,10.661892 22.0479508,9.02760576 27.6184661,9.5119984 C28.20662,9.56314221 28.6419527,10.0813954 28.5908089,10.6695493 C28.5396651,11.2577032 28.0214119,11.6930359 27.433258,11.6418921 C22.5638853,11.2184684 16.9627427,12.6321189 13.7756095,14.9547781 L13.6538966,15.0445134 L13.7440826,15.1427611 C14.3836658,15.8649993 14.7817614,16.7240291 14.9308465,17.7249904 L14.9589792,17.9416564 C15.2726693,20.7648674 13.5797163,22.6579058 11.4250826,22.190454 C9.31357216,21.732358 8.39668439,19.3445089 9.54896414,16.6937562 C9.72615588,16.2861369 9.9506344,15.8914662 10.2175576,15.5108635 L10.321931,15.366272 L10.3113141,15.3623121 C8.74713093,14.7078655 6.44283687,14.3489738 3.34783887,14.3202024 L2.93965517,14.3183245 C2.34928182,14.3183245 1.87068966,13.8397324 1.87068966,13.249359 C1.87068966,12.6589857 2.34928182,12.1803935 2.93965517,12.1803935 C6.79291769,12.1803935 9.76406074,12.670287 11.7928985,13.691193 L11.8783448,13.7350306 L12.0432663,13.5988767 Z M12.0996207,16.5517548 L12.0902337,16.5640049 C11.8511732,16.8818167 11.6558783,17.2096928 11.5096566,17.5460674 C10.8557413,19.0503616 11.2029494,19.9545952 11.8783657,20.101128 C12.4801099,20.2316775 12.9979947,19.6525853 12.8341243,18.1777513 C12.7697721,17.5985817 12.5477041,17.079109 12.1623858,16.6231147 L12.0996207,16.5517548 Z" id="路径-37" fill="#FFF133" fill-rule="nonzero" transform="translate(15.2328, 15.8445) scale(1, -1) translate(-15.2328, -15.8445)"></path>
                </g>
            </g>
        </g>
    </g>
</svg>