<svg height="43" viewBox="0 0 43 43" width="43" xmlns="http://www.w3.org/2000/svg" xmlns:xlink="http://www.w3.org/1999/xlink"><linearGradient id="a" x1="24.095545%" x2="80.519216%" y1="14.407938%" y2="85.114696%"><stop offset="0" stop-color="#ffc6f4"/><stop offset="1" stop-color="#adc2fc"/></linearGradient><g fill="none" fill-rule="evenodd"><path d="m0 0h43v43h-43z"/><g transform="translate(6 6)"><path d="m0 0h31v31h-31z"/><path d="m15.500708 3.63448276c5.8975125.0051882 10.6785547 4.78201326 10.6889472 10.67951894-.0059442 2.0157098-.458738 3.9926093-1.3117719 5.7934105.8624186.0309386 1.7196737.0123796 2.5553747-.0602901.5881539-.0511438 1.1064071.3841889 1.1575509.9723428s-.3841889 1.1064071-.9723428 1.1575509c-1.2916295.1123156-2.626154.1107242-3.9595696.0053979-.0843582.1197343-.1718414.2383739-.2613517.35572-1.742319 2.2900764-4.0823106 4.0554396-6.7627525 5.1020328-.7268786.2849716-1.5345555.2849716-2.2614342 0-2.6422185-1.0171823-4.95996607-2.7303607-6.70752988-4.9579152-.78196806-1.0057809-1.41286338-2.109477-1.88077969-3.276165-.88486296.0688362-1.83478907.1025344-2.84539336.1025344-.59037335 0-1.06896551-.4785922-1.06896551-1.0689655 0-.5903734.47859216-1.0689655 1.06896551-1.0689655l.4081837-.0018779c.62916565-.0058488 1.22565573-.0253397 1.78989526-.0581823-.22020762-.9781779-.33064613-1.9826986-.32745739-2.9966278.01053112-5.89803097 4.7923928-10.67507283 10.69043126-10.67951894zm-3.6223632 14.31950084-.0854463.0438376c-1.0259463.5162536-2.29285347.8967198-3.79293872 1.1467157.36062791.7841608.81222607 1.5290432 1.34793726 2.2180957 1.50943886 1.9240255 3.51136776 3.4037645 5.80580586 4.287104.225236.0883034.4755087.0883034.703495-.0010761 2.0636084-.8057472 3.8935001-2.1049251 5.3333668-3.7802508-3.5419199-.6187798-6.8770569-1.944643-9.1472984-3.7782722zm3.6215551-12.18156962-.263742.0042595c-4.5962552.14385972-8.27967133 3.91081234-8.28795012 8.54409982-.00296413.942511.11062637 1.8753666.33368543 2.7782689 1.21424303-.1746437 2.22074265-.433993 3.02942089-.7723401l.0106169-.0039599-.1043734-.1445915c-.2669232-.3806027-.49140172-.7752734-.66859346-1.1828927-1.15227975-2.6507527-.23539198-5.03860182 1.87611846-5.49669785 2.1546337-.46745172 3.8475867 1.42558665 3.5338966 4.24879765l-.0281327.216666c-.1490851 1.0009613-.5471807 1.8599911-1.1867639 2.5822293l-.090186.0982477.1217129.0897353c2.1534569 1.5693559 5.4089882 2.7237197 8.7962265 3.1768141.9608644-1.7024496 1.4740801-3.6289495 1.4798915-5.5932811-.0083151-4.71860838-3.8333491-8.54062546-8.5518276-8.54535512zm-2.6657756 7.73884892c.1638704-1.474834-.3540144-2.0539262-.9557586-1.9233767-.6754163.1465328-1.0226244 1.0507664-.3687091 2.5550606.1462217.3363746.3415166.6642507.5805771.9820625l.009387.0122501.0627651-.0713599c.3853183-.4559943.6073863-.975467.6717385-1.5546366z" fill="url(#a)" fill-rule="nonzero"/></g></g></svg>