<svg height="43" viewBox="0 0 43 43" width="43" xmlns="http://www.w3.org/2000/svg" xmlns:xlink="http://www.w3.org/1999/xlink"><linearGradient id="a" x1="24.095545%" x2="80.519216%" y1="24.13714%" y2="75.515984%"><stop offset="0" stop-color="#ffc6f4"/><stop offset="1" stop-color="#adc2fc"/></linearGradient><g fill="none" fill-rule="evenodd"><path d="m0 0h43v43h-43z"/><g transform="translate(6 6)"><path d="m0 0h31v31h-31z"/><path d="m15.73816 4.27586207c4.4174916 0 8.3828042 2.52203761 10.2949315 6.41727603.2601529.5299634.0414283 1.1704791-.4885351 1.430632s-1.1704792.0414282-1.430632-.4885351c-1.5561334-3.17003503-4.7814895-5.2214419-8.3757644-5.2214419-5.1497056 0-9.3243669 4.1746613-9.3243669 9.3243669 0 1.4833413.34636867 2.8857839.96263902 4.1308607 3.43514838-.3259494 7.47129798-1.5319017 11.09299948-3.1922525l.3827764-.1794234-.1109826-.0474517c-.2846204-.12261-.5108684-.223493-.6678387-.295463l-.0857815-.0396549c-.5349864-.2496603-.7662889-.8857421-.5166286-1.4207285.2496604-.5349864.8857422-.7662889 1.4207286-.5166286.1594791.0744236.4580933.2083018.865131.3817057.5107971.2176069 1.0484703.4352847 1.5997956.6445939l.4669431.1731444-.4667807-.1740345.1769288-.0993517c.3227536-.185518.6386402-.3742031.9467005-.5656528l.456101-.289198c2.3813537-1.5408759 4.7203838-1.7120245 6.2518567-.6030269 1.5799266 1.1440848 1.6681206 3.2783807.0478257 4.4936019-1.1813414.8860061-3.1082656.7650857-5.7473662.0274909-.55286-.1545172-1.1260894-.3351189-1.7137368-.5375148l-.240529-.0853141-.4213755.2233345c-3.8681996 1.9998464-8.3962369 3.5355559-12.40531075 4.0962739 1.70875375 1.9600869 4.22482415 3.1990565 7.03027135 3.1990565 3.597078 0 6.8245235-2.0546246 8.3792071-5.2284626.2597063-.5301824.9000376-.7494465 1.4302199-.4897402.5301824.2597063.7494465.9000376.4897402 1.4302199-1.910353 3.8999262-5.8782252 6.4259139-10.2991672 6.4259139-3.9831963 0-7.49185497-2.0317371-9.54616749-5.1154028l-.07941335.002515-.50051019.0068023c-4.94437914 0-6.16192778-3.6565331-3.49069197-6.8343802.37987721-.4519226 1.05418416-.5103269 1.50610671-.1304497.45192256.3798772.51032685 1.0541842.13044964 1.5061067-1.4866232 1.7685677-1.1655556 3.1345103 1.31142988 3.3032285-.51203068-1.3013244-.79350116-2.7181506-.79350116-4.2007178 0-6.33045233 5.1318456-11.46229793 11.46229793-11.46229793zm8.3597983 11.76770613-.080509.0507766.0468624.0133216c1.8972961.53027 3.3124844.6386587 3.8198877.3650847l.0692489-.0438958c.4389097-.3291823.4222587-.7321357-.0189847-1.0516567-.7391627-.5352558-2.1375843-.4329322-3.8365053.6663696zm-13.1410617-5.353913c.5903733 0 1.0689655.4785921 1.0689655 1.0689655v1.6034483c0 .5903733-.4785922 1.0689655-1.0689655 1.0689655-.5903734 0-1.06896557-.4785922-1.06896557-1.0689655v-1.6034483c0-.5903734.47859217-1.0689655 1.06896557-1.0689655z" fill="url(#a)" fill-rule="nonzero"/></g></g></svg>