<svg height="43" viewBox="0 0 43 43" width="43" xmlns="http://www.w3.org/2000/svg" xmlns:xlink="http://www.w3.org/1999/xlink"><linearGradient id="a" x1="24.095545%" x2="80.519216%" y1="19.561575%" y2="80.03018%"><stop offset="0" stop-color="#ffc6f4"/><stop offset="1" stop-color="#adc2fc"/></linearGradient><g fill="none" fill-rule="evenodd"><path d="m0 0h43v43h-43z"/><g transform="translate(6 6)"><path d="m0 0h31v31h-31z"/><path d="m15.4998411 3.74137931c4.8969995 0 9.048397 3.60171812 9.7392978 8.44973419l.4088247 2.8782245c.7583048-.0576121 1.5489312-.091777 2.3715248-.1011632l.4684426-.0026576c.5903734 0 1.0689656.4785922 1.0689656 1.0689656 0 .5903733-.4785922 1.0689655-1.0689656 1.0689655-.8914311 0-1.737291.0283455-2.53802.0829022l.7381733 5.1719387c.2783774 1.95336-1.0794643 3.7625405-3.0328242 4.0409179-.4258449.060688-.8591495.0439737-1.3450422-.0662256l-2.2977524-.6667031c-.5669883-.1645142-.8932581-.7575142-.7287439-1.3245025.1645142-.5669884.7575142-.8932581 1.3245025-.7287439l2.2317643.649816c.1686239.037472.3426289.0441841.5136384.0198132.7844239-.1117899 1.3297015-.8383147 1.2179116-1.6227386l-.7492645-5.2535993c-3.0394097.4312566-5.2746363 1.2979843-6.7392564 2.4374136l-.1324313.1063665.1202483.1754407c.6874058 1.0366112 1.0566647 2.1909604 1.0977283 3.4263603l.003851.2325784c0 2.0043103-1.1023707 3.4741379-2.6724138 3.4741379s-2.6724138-1.4698276-2.6724138-3.4741379c0-1.3243346.3719084-2.5591784 1.1040815-3.6607544l.119884-.1757629-.1283979-.1031796c-1.4649278-1.1435228-3.7025172-2.012771-6.74494476-2.4427517l-.75006522 5.2578884c-.02437091.1710094-.01765882.3450145.01981316.5136384.17188475.7734813.93825543 1.2611718 1.64578668 1.1061631l2.29807014-.6667031c.5669945-.1644933 1.1599824.1617984 1.3244756.7287928.1644932.5669945-.1617985 1.1599824-.7287929 1.3244756l-2.36402034.6835792c-1.92611104.4280247-3.83451511-.7864142-4.26253979-2.7125253-.09331212-.4199045-.11002648-.8532091-.04933843-1.2790541l.73881211-5.174678c-.64786413-.0435545-1.32523374-.0698253-2.03233173-.0776694l-.45256108-.0024935c-.59037335 0-1.06896552-.4785922-1.06896552-1.0689655 0-.5903734.47859217-1.0689656 1.06896552-1.0689656.9720452 0 1.90075354.0342779 2.78553849.1006922l.40948755-2.8750959c.69090084-4.84801607 4.84229832-8.44973419 9.73929782-8.44973419zm.0001589 17.91799999-.0089482.0178122c-.3516365.6629968-.5255346 1.3716331-.5255346 2.1072913 0 .5398912.1143368.931903.2872845 1.1625.0963183.1284243.1812231.1737069.2471983.1737069s.15088-.0452826.2471983-.1737069c.1729477-.230597.2872845-.6226088.2872845-1.1625 0-.7351726-.173516-1.4435175-.5241902-2.1063589zm-.0001589-15.78006896c-3.8327827 0-7.0819978 2.81899212-7.62275195 6.61343656l-.3995775 2.8061368c3.47619195.5085903 6.13627865 1.5747969 7.93406175 3.0299451l.0905645.0744815.0932068-.0762888c1.7969827-1.4501509 4.4539282-2.513362 7.9266399-3.0234685l-.3993915-2.8108061c-.5407542-3.79444444-3.7899693-6.61343656-7.622752-6.61343656zm-2.1377721 4.81034486c.5903733 0 1.0689655.4785921 1.0689655 1.0689655v.8017241c0 .5903734-.4785922 1.0689655-1.0689655 1.0689655-.5903734 0-1.0689656-.4785921-1.0689656-1.0689655v-.8017241c0-.5903734.4785922-1.0689655 1.0689656-1.0689655zm4.275862 0c.5903734 0 1.0689656.4785921 1.0689656 1.0689655v.8017241c0 .5903734-.4785922 1.0689655-1.0689656 1.0689655-.5903733 0-1.0689655-.4785921-1.0689655-1.0689655v-.8017241c0-.5903734.4785922-1.0689655 1.0689655-1.0689655z" fill="url(#a)" fill-rule="nonzero"/></g></g></svg>