<?xml version="1.0" encoding="UTF-8"?>
<svg width="43px" height="43px" viewBox="0 0 43 43" version="1.1" xmlns="http://www.w3.org/2000/svg" xmlns:xlink="http://www.w3.org/1999/xlink">
    <title>我的-选中@2x</title>
    <defs>
        <linearGradient x1="29.3077427%" y1="6.18378548%" x2="70.1821239%" y2="94.7455997%" id="linearGradient-1">
            <stop stop-color="#A5EFFF" offset="0%"></stop>
            <stop stop-color="#B9D1FF" offset="29.5157479%"></stop>
            <stop stop-color="#8F5EFF" offset="60.1696694%"></stop>
            <stop stop-color="#EF3FFF" offset="100%"></stop>
        </linearGradient>
        <linearGradient x1="23.5487459%" y1="9.6990631%" x2="31.6252744%" y2="37.2507292%" id="linearGradient-2">
            <stop stop-color="#FFFFFF" stop-opacity="0.75" offset="0%"></stop>
            <stop stop-color="#FFFFFF" stop-opacity="0" offset="100%"></stop>
        </linearGradient>
        <path d="M5.37120021,19.9271528 L3.06179081,20.5971456 C1.70533438,20.8985804 0.361348024,20.0433163 0.0599132623,18.6868599 C-0.00580144599,18.3911437 -0.0175724677,18.0859906 0.025166863,17.7860909 L1.48126163,7.56874797 C2.10012777,3.22619576 5.81869223,-1.72084569e-15 10.2051207,-1.72084569e-15 C14.5915492,-1.72084569e-15 18.3101137,3.22619576 18.9289798,7.56874797 L20.3850746,17.7860909 C20.5811208,19.1617372 19.624866,20.4358458 18.2492197,20.631892 C17.9493199,20.6746313 17.6441668,20.6628603 17.3484507,20.5971456 L15.0393606,19.9271528 L10.2052804,18.7992007 L5.37120021,19.9271528 Z" id="path-3"></path>
        <filter x="-14.7%" y="-14.5%" width="129.4%" height="129.0%" filterUnits="objectBoundingBox" id="filter-5">
            <feGaussianBlur stdDeviation="2" in="SourceAlpha" result="shadowBlurInner1"></feGaussianBlur>
            <feOffset dx="-2" dy="-2" in="shadowBlurInner1" result="shadowOffsetInner1"></feOffset>
            <feComposite in="shadowOffsetInner1" in2="SourceAlpha" operator="arithmetic" k2="-1" k3="1" result="shadowInnerInner1"></feComposite>
            <feColorMatrix values="0 0 0 0 0.971686657   0 0 0 0 0.822030416   0 0 0 0 1  0 0 0 1 0" type="matrix" in="shadowInnerInner1"></feColorMatrix>
        </filter>
        <filter x="-103.2%" y="-103.2%" width="306.5%" height="306.5%" filterUnits="objectBoundingBox" id="filter-6">
            <feGaussianBlur stdDeviation="4" in="SourceGraphic"></feGaussianBlur>
        </filter>
        <path d="M13.362069,10.6896552 C13.9524423,10.6896552 14.4310345,11.1682473 14.4310345,11.7586207 L14.4310345,12.5603448 C14.4310345,13.1507182 13.9524423,13.6293103 13.362069,13.6293103 C12.7716956,13.6293103 12.2931034,13.1507182 12.2931034,12.5603448 L12.2931034,11.7586207 C12.2931034,11.1682473 12.7716956,10.6896552 13.362069,10.6896552 Z M17.637931,10.6896552 C18.2283044,10.6896552 18.7068966,11.1682473 18.7068966,11.7586207 L18.7068966,12.5603448 C18.7068966,13.1507182 18.2283044,13.6293103 17.637931,13.6293103 C17.0475577,13.6293103 16.5689655,13.1507182 16.5689655,12.5603448 L16.5689655,11.7586207 C16.5689655,11.1682473 17.0475577,10.6896552 17.637931,10.6896552 Z" id="path-7"></path>
        <filter x="-15.6%" y="-17.0%" width="131.2%" height="168.0%" filterUnits="objectBoundingBox" id="filter-8">
            <feOffset dx="0" dy="0.5" in="SourceAlpha" result="shadowOffsetOuter1"></feOffset>
            <feGaussianBlur stdDeviation="0.25" in="shadowOffsetOuter1" result="shadowBlurOuter1"></feGaussianBlur>
            <feColorMatrix values="0 0 0 0 0.550923729   0 0 0 0 0.288072433   0 0 0 0 0.712222777  0 0 0 0.698625471 0" type="matrix" in="shadowBlurOuter1"></feColorMatrix>
        </filter>
        <filter x="-15.6%" y="-17.0%" width="131.2%" height="168.0%" filterUnits="objectBoundingBox" id="filter-9">
            <feGaussianBlur stdDeviation="0.25" in="SourceAlpha" result="shadowBlurInner1"></feGaussianBlur>
            <feOffset dx="0" dy="-0.5" in="shadowBlurInner1" result="shadowOffsetInner1"></feOffset>
            <feComposite in="shadowOffsetInner1" in2="SourceAlpha" operator="arithmetic" k2="-1" k3="1" result="shadowInnerInner1"></feComposite>
            <feColorMatrix values="0 0 0 0 0.799328624   0 0 0 0 0.714835413   0 0 0 0 1  0 0 0 1 0" type="matrix" in="shadowInnerInner1"></feColorMatrix>
        </filter>
    </defs>
    <g id="PWA-Emma" stroke="none" stroke-width="1" fill="none" fill-rule="evenodd">
        <g id="图标切图" transform="translate(-123, -63)">
            <g id="我的-选中" transform="translate(123, 63)">
                <rect id="蒙版" fill="#33253C" x="0" y="0" width="43" height="43" rx="17"></rect>
                <g id="我的_f" transform="translate(6, 6)">
                    <rect id="矩形" x="0" y="0" width="31" height="31"></rect>
                    <path d="M10.4364791,25.1488203 L8.01745788,25.8506131 C6.59661975,26.1663549 5.18884357,25.2704974 4.87310176,23.8496592 C4.80426803,23.5399074 4.79193832,23.2202708 4.83670619,22.9061369 L6.3619118,12.2038467 C7.01015128,7.65518324 10.9052105,4.27586207 15.4998327,4.27586207 C20.094455,4.27586207 23.9895142,7.65518324 24.6377537,12.2038467 L26.1629593,22.9061369 C26.3683105,24.3470757 25.3666688,25.6816575 23.9257299,25.8870087 C23.6115961,25.9317766 23.2919594,25.9194469 22.9822076,25.8506131 L20.5635209,25.1488203 L15.5,23.9673321 L10.4364791,25.1488203 Z" id="路径" fill="url(#linearGradient-1)"></path>
                    <g id="椭圆形" transform="translate(5.7791, 5.2446)">
                        <mask id="mask-4" fill="white">
                            <use xlink:href="#path-3"></use>
                        </mask>
                        <g id="蒙版">
                            <use fill-opacity="0" fill="#FFFFFF" fill-rule="evenodd" xlink:href="#path-3"></use>
                            <use fill="black" fill-opacity="1" filter="url(#filter-5)" xlink:href="#path-3"></use>
                            <path stroke="url(#linearGradient-2)" stroke-width="0.2" d="M10.2051207,0.1 C12.373446,0.1 14.3767001,0.897396095 15.9143532,2.23145122 C17.4520063,3.56550635 18.5240585,5.4362205 18.8299801,7.58285663 L20.2860749,17.8001996 C20.380202,18.4606847 20.1977036,19.0967943 19.8265521,19.5913145 C19.4554007,20.0858346 18.8955961,20.4387652 18.235111,20.5328923 C17.947131,20.5739329 17.6541064,20.5626297 17.3763168,20.5011067 L15.0620836,19.8297687 L10.2052789,18.6965143 L5.34333764,19.8311128 L3.04009776,20.4995269 C2.38882621,20.6442539 1.74054827,20.5112997 1.21890646,20.1793458 C0.697264652,19.8473919 0.30225898,19.3164384 0.157531968,18.6651669 C0.0944291377,18.3812041 0.0831259636,18.0881796 0.124166589,17.8001996 L1.58026136,7.58285663 C1.88618293,5.4362205 2.95823512,3.56550635 4.49588824,2.23145122 C6.03354136,0.897396095 8.03679542,0.1 10.2051207,0.1 Z" stroke-linejoin="square"></path>
                        </g>
                        <circle fill-opacity="0.846641274" fill="#FFFFFF" filter="url(#filter-6)" mask="url(#mask-4)" cx="7.78340517" cy="5.41163793" r="5.8125"></circle>
                    </g>
                    <path d="M28.487931,14.9655172 C29.0783044,14.9655172 29.5568966,15.4441094 29.5568966,16.0344828 C29.5568966,16.6248561 29.0783044,17.1034483 28.487931,17.1034483 C22.982953,17.1034483 19.2158797,18.184436 17.0830175,19.8437369 L16.9505862,19.9501034 L17.0708345,20.1255441 C17.7582403,21.1621553 18.1274992,22.3165045 18.1685628,23.5519044 L18.1724138,23.7844828 C18.1724138,25.7887931 17.0700431,27.2586207 15.5,27.2586207 C13.9299569,27.2586207 12.8275862,25.7887931 12.8275862,23.7844828 C12.8275862,22.4601482 13.1994946,21.2253044 13.9316677,20.1237284 L14.0515517,19.9479655 L13.9231538,19.8447859 C11.856309,18.2314066 8.25140653,17.1639974 3.01807832,17.1059418 L2.56551724,17.1034483 C1.97514389,17.1034483 1.49655172,16.6248561 1.49655172,16.0344828 C1.49655172,15.4441094 1.97514389,14.9655172 2.56551724,14.9655172 C8.51691878,14.9655172 12.8438079,16.2504472 15.4115734,18.3288288 L15.5021379,18.4033103 L15.5953447,18.3270215 C18.1026055,16.3036818 22.2840028,15.033619 28.0194884,14.9681748 L28.487931,14.9655172 Z M15.5,21.6593793 L15.4910518,21.6771915 C15.1394153,22.3401883 14.9655172,23.0488246 14.9655172,23.7844828 C14.9655172,24.324374 15.079854,24.7163858 15.2528017,24.9469828 C15.34912,25.0754071 15.4340248,25.1206897 15.5,25.1206897 C15.5659752,25.1206897 15.65088,25.0754071 15.7471983,24.9469828 C15.920146,24.7163858 16.0344828,24.324374 16.0344828,23.7844828 C16.0344828,23.0493102 15.8609668,22.3409653 15.5102926,21.6781239 L15.5,21.6593793 Z" id="路径-35" fill="#FFF133" fill-rule="nonzero"></path>
                    <g id="形状结合" fill-rule="nonzero">
                        <use fill="black" fill-opacity="1" filter="url(#filter-8)" xlink:href="#path-7"></use>
                        <use fill="#FFFFFF" xlink:href="#path-7"></use>
                        <use fill="black" fill-opacity="1" filter="url(#filter-9)" xlink:href="#path-7"></use>
                    </g>
                </g>
            </g>
        </g>
    </g>
</svg>