<svg height="20" viewBox="0 0 20 20" width="20" xmlns="http://www.w3.org/2000/svg"><g fill="none" fill-rule="evenodd"><path d="m0 0h20v20h-20z"/><g fill="#fff" fill-rule="nonzero"><path d="m14.5879167 6.75958333 2.5895833 2.59416667c.3554133.35753433.3554133.9349657 0 1.2925l-2.5895833 2.5941667c-.2317017.2317016-.5694141.3221914-.8859245.2373827-.3165103-.0848087-.563733-.3320314-.6485416-.6485417-.0848087-.3165103.0056811-.6542228.2373827-.8859244l1.0266667-1.0266666h-4.96375c-.50626102 0-.91666667-.4104057-.91666667-.9166667 0-.50626102.41040565-.91666667.91666667-.91666667h4.96375l-1.0266667-1.02666666c-.3581796-.35817967-.3581797-.93890366 0-1.29708333.3581797-.35817968.9389037-.35817968 1.2970834-.00000001z"/><path d="m11.9479167 2.66666667c0-.50626101-.4104057-.91666667-.9166667-.91666667h-5.5c-1.51878306 0-2.75 1.23121694-2.75 2.75v11c0 1.5187831 1.23121694 2.75 2.75 2.75h5.5c.506261 0 .9166667-.4104057.9166667-.9166667s-.4104057-.9166666-.9166667-.9166666h-5.5c-.50626102 0-.91666667-.4104057-.91666667-.9166667v-11c0-.24311512.0965771-.47627287.26848545-.64818122s.4050661-.26848545.64818122-.26848545h5.5c.506261-.00000002.9166667-.41040565.9166667-.91666666z"/></g></g></svg>