<svg height="20" viewBox="0 0 20 20" width="20" xmlns="http://www.w3.org/2000/svg"><g fill="none" fill-rule="evenodd"><path d="m0 0h20v20h-20z"/><g fill="#fff" fill-rule="nonzero"><path d="m11.8882461 1.46930191c.3695065-.27313655.8510287-.34364515 1.2833333-.18791666 1.0015948.3632628 1.9321928.89835669 2.75 1.58125.3448606.30176062.5167282.75549114.4583334 1.21-.077914.66915313.0567848 1.3458544.385 1.93416666.3057437.51068969.7488336.9251931 1.27875 1.19625l.20625.10083334c.4203266.18767042.7218021.56965361.8066666 1.02208333.1771923 1.04672072.1771923 2.11577932 0 3.16250002-.0734379.4089139-.3278261.7626989-.6920833.9625l-.1145833.0595833c-1.2708014.5302524-2.0332625 1.8416105-1.8654167 3.2083334.0583948.4545088-.1134728.9082393-.4583333 1.21-.8178072.6828933-1.7484053 1.2179872-2.75 1.58125-.4323047.1557284-.9138268.0852198-1.2833334-.1879167-1.1005425-.8436153-2.63029079-.8436153-3.7308333 0-.36950654.2731365-.85102871.3436452-1.28333335.1879167-1.00159473-.3632628-1.93219281-.8983567-2.75-1.58125-.34486055-.3017607-.51672817-.7554912-.45833332-1.21.07693241-.6676428-.05773597-1.3425879-.385-1.9295834-.3088825-.5051918-.75358085-.9133614-1.28333333-1.1779166l-.20625-.1008334c-.42161118-.1849306-.72269246-.5685942-.80208335-1.0220833-.183217-1.0462058-.183217-2.11629426 0-3.16250002.07241005-.40804451.32499629-.76166525.6875-.9625l.11458335-.05958333c.61718303-.26657476 1.13503182-.72029368 1.48041665-1.29708334.32821514-.58831226.46291397-1.26501353.385-1.93416666-.05839484-.45450887.11347279-.90823939.45833335-1.21.81780719-.68289331 1.74840527-1.2179872 2.75-1.58125.43230463-.15572849.91382679-.08521989 1.28333333.18791666.5396882.40703594 1.19415121.63321066 1.86999997.64625.6742739-.01399908 1.3269901-.24012434 1.8654167-.64625zm.8845833 1.56291667c-1.6544001 1.14550275-3.84559981 1.14550275-5.49999997 0-.63967144.25959365-1.2386026.60999926-1.77833333 1.04041667.06675484.98360622-.15633496 1.96520133-.64166667 2.82333333-.48809497.85113238-1.21897487 1.53732966-2.09916668 1.97083333-.09779494.69016399-.09779494 1.39066939 0 2.08083339.87923564.4348829 1.60975543 1.1207421 2.09916668 1.9708333.48533171.858132.70842151 1.8397271.64166667 2.8233333.53973073.4304174 1.13866189.780823 1.77833333 1.0404167 1.65440016-1.1455028 3.84559987-1.1455028 5.49999997 0 .6396715-.2595937 1.2386026-.6099993 1.7783334-1.0404167-.0667549-.9836062.1563349-1.9652013.6416666-2.8233333.4894113-.8500912 1.2199311-1.5359504 2.0991667-1.9708333.0469202-.3447582.0683672-.6925057.0641667-1.04041672.0013243-.34662018-.0231881-.69285701-.0733334-1.03583333-.8795587-.43656417-1.6100298-1.12397256-2.0991666-1.97541667-.4853318-.858132-.7084215-1.83972711-.6416667-2.82333333-.5369085-.4296616-1.132705-.78003935-1.7691667-1.04041667z"/><path d="m10.0228294 6.24055191c-2.02504406 0-3.66666665 1.64162258-3.66666665 3.66666667 0 2.02504412 1.64162259 3.66666672 3.66666665 3.66666672 2.0250441 0 3.6666667-1.6416226 3.6666667-3.66666672 0-2.02504409-1.6416226-3.66666667-3.6666667-3.66666667m0 1.83333334c1.0125221 0 1.8333334.82081129 1.8333334 1.83333333 0 1.01252202-.8208113 1.83333332-1.8333334 1.83333332-1.01252201 0-1.8333333-.8208113-1.8333333-1.83333332 0-1.01252204.82081129-1.83333333 1.8333333-1.83333333"/></g></g></svg>